%TF.GenerationSoftware,KiCad,Pcbnew,10.0.5*%
%TF.CreationDate,2026-08-06T10:00:31-07:00*%
%TF.ProjectId,Hackpad,4861636b-7061-4642-9e6b-696361645f70,rev?*%
%TF.SameCoordinates,Original*%
%TF.FileFunction,Copper,L2,Bot*%
%TF.FilePolarity,Positive*%
%FSLAX46Y46*%
G04 Gerber Fmt 4.6, Leading zero omitted, Abs format (unit mm)*
G04 Created by KiCad (PCBNEW 10.0.5) date 2026-08-06 10:00:31*
%MOMM*%
%LPD*%
G01*
G04 APERTURE LIST*
G04 Aperture macros list*
%AMRoundRect*
0 Rectangle with rounded corners*
0 $1 Rounding radius*
0 $2 $3 $4 $5 $6 $7 $8 $9 X,Y pos of 4 corners*
0 Add a 4 corners polygon primitive as box body*
4,1,4,$2,$3,$4,$5,$6,$7,$8,$9,$2,$3,0*
0 Add four circle primitives for the rounded corners*
1,1,$1+$1,$2,$3*
1,1,$1+$1,$4,$5*
1,1,$1+$1,$6,$7*
1,1,$1+$1,$8,$9*
0 Add four rect primitives between the rounded corners*
20,1,$1+$1,$2,$3,$4,$5,0*
20,1,$1+$1,$4,$5,$6,$7,0*
20,1,$1+$1,$6,$7,$8,$9,0*
20,1,$1+$1,$8,$9,$2,$3,0*%
G04 Aperture macros list end*
%TA.AperFunction,ComponentPad*%
%ADD10RoundRect,0.250000X-0.550000X-0.550000X0.550000X-0.550000X0.550000X0.550000X-0.550000X0.550000X0*%
%TD*%
%TA.AperFunction,ComponentPad*%
%ADD11C,1.600000*%
%TD*%
%TA.AperFunction,ComponentPad*%
%ADD12C,2.200000*%
%TD*%
%TA.AperFunction,ComponentPad*%
%ADD13R,2.000000X2.000000*%
%TD*%
%TA.AperFunction,ComponentPad*%
%ADD14C,2.000000*%
%TD*%
%TA.AperFunction,ComponentPad*%
%ADD15R,3.200000X2.000000*%
%TD*%
%TA.AperFunction,ComponentPad*%
%ADD16R,1.700000X1.700000*%
%TD*%
%TA.AperFunction,ComponentPad*%
%ADD17O,1.700000X1.700000*%
%TD*%
%TA.AperFunction,ComponentPad*%
%ADD18R,3.500000X1.700000*%
%TD*%
%TA.AperFunction,ComponentPad*%
%ADD19O,3.600000X1.700000*%
%TD*%
%TA.AperFunction,ComponentPad*%
%ADD20O,3.700000X1.700000*%
%TD*%
%TA.AperFunction,ViaPad*%
%ADD21C,0.600000*%
%TD*%
%TA.AperFunction,Conductor*%
%ADD22C,0.200000*%
%TD*%
G04 APERTURE END LIST*
D10*
%TO.P,D15,1,K_1*%
%TO.N,/col2*%
X139190000Y-92800000D03*
D11*
%TO.P,D15,2,A_2*%
%TO.N,Net-(D15-A)*%
X146810000Y-92800000D03*
%TD*%
D12*
%TO.P,SW20,1,1_1*%
%TO.N,/row0*%
X90540000Y-99420000D03*
%TO.P,SW20,2,2_2*%
%TO.N,Net-(D10-A)*%
X84190000Y-101960000D03*
%TD*%
D10*
%TO.P,D3,1,K_1*%
%TO.N,/col0*%
X139190000Y-58250000D03*
D11*
%TO.P,D3,2,A_2*%
%TO.N,Net-(D3-A)*%
X146810000Y-58250000D03*
%TD*%
D12*
%TO.P,SW25,1,1_1*%
%TO.N,/row1*%
X110040000Y-99420000D03*
%TO.P,SW25,2,2_2*%
%TO.N,Net-(D15-A)*%
X103690000Y-101960000D03*
%TD*%
D13*
%TO.P,SW4,A,A_A*%
%TO.N,Net-(U1-PA7_A8_D8_SCK)*%
X119670000Y-121500000D03*
D14*
%TO.P,SW4,B,B_B*%
%TO.N,Net-(U1-PB09_A7_D7_RX)*%
X119670000Y-126500000D03*
%TO.P,SW4,C,C_C*%
%TO.N,GND*%
X119670000Y-124000000D03*
D15*
%TO.P,SW4,MP*%
%TO.N,N/C*%
X127170000Y-118400000D03*
X127170000Y-129600000D03*
D14*
%TO.P,SW4,S1,S1_S1*%
%TO.N,/row2*%
X134170000Y-126500000D03*
%TO.P,SW4,S2,S2_S2*%
%TO.N,Net-(D3-A)*%
X134170000Y-121500000D03*
%TD*%
D16*
%TO.P,J1,1,Pin_1_1*%
%TO.N,GND*%
X101750000Y-145310000D03*
D17*
%TO.P,J1,2,Pin_2_2*%
%TO.N,+3.3V*%
X101750000Y-142770000D03*
%TO.P,J1,3,Pin_3_3*%
%TO.N,Net-(J1-Pin_3)*%
X101750000Y-140230000D03*
%TO.P,J1,4,Pin_4_4*%
%TO.N,Net-(J1-Pin_4)*%
X101750000Y-137690000D03*
%TD*%
D10*
%TO.P,D5,1,K_1*%
%TO.N,/col2*%
X139190000Y-63500000D03*
D11*
%TO.P,D5,2,A_2*%
%TO.N,Net-(D5-A)*%
X146810000Y-63500000D03*
%TD*%
D12*
%TO.P,SW14,1,1_1*%
%TO.N,/row2*%
X129540000Y-60420000D03*
%TO.P,SW14,2,2_2*%
%TO.N,Net-(D4-A)*%
X123190000Y-62960000D03*
%TD*%
%TO.P,SW16,1,1_1*%
%TO.N,/row2*%
X129460000Y-99420000D03*
%TO.P,SW16,2,2_2*%
%TO.N,Net-(D6-A)*%
X123110000Y-101960000D03*
%TD*%
D10*
%TO.P,D4,1,K_1*%
%TO.N,/col1*%
X139190000Y-60850000D03*
D11*
%TO.P,D4,2,A_2*%
%TO.N,Net-(D4-A)*%
X146810000Y-60850000D03*
%TD*%
D12*
%TO.P,SW26,1,1_1*%
%TO.N,/row1*%
X110040000Y-118920000D03*
%TO.P,SW26,2,2_2*%
%TO.N,Net-(D16-A)*%
X103690000Y-121460000D03*
%TD*%
%TO.P,SW22,1,1_1*%
%TO.N,/row0*%
X90540000Y-60420000D03*
%TO.P,SW22,2,2_2*%
%TO.N,Net-(D12-A)*%
X84190000Y-62960000D03*
%TD*%
D10*
%TO.P,D10,1,K_1*%
%TO.N,/col1*%
X139190000Y-75050000D03*
D11*
%TO.P,D10,2,A_2*%
%TO.N,Net-(D10-A)*%
X146810000Y-75050000D03*
%TD*%
D12*
%TO.P,SW19,1,1_1*%
%TO.N,/row0*%
X90540000Y-118920000D03*
%TO.P,SW19,2,2_2*%
%TO.N,Net-(D9-A)*%
X84190000Y-121460000D03*
%TD*%
D10*
%TO.P,D6,1,K_1*%
%TO.N,/col3*%
X139190000Y-66250000D03*
D11*
%TO.P,D6,2,A_2*%
%TO.N,Net-(D6-A)*%
X146810000Y-66250000D03*
%TD*%
D10*
%TO.P,D9,1,K_1*%
%TO.N,/col0*%
X139190000Y-69000000D03*
D11*
%TO.P,D9,2,A_2*%
%TO.N,Net-(D9-A)*%
X146810000Y-69000000D03*
%TD*%
D10*
%TO.P,D16,1,K_1*%
%TO.N,/col3*%
X139190000Y-96350000D03*
D11*
%TO.P,D16,2,A_2*%
%TO.N,Net-(D16-A)*%
X146810000Y-96350000D03*
%TD*%
D12*
%TO.P,SW21,1,1_1*%
%TO.N,/row0*%
X90540000Y-79920000D03*
%TO.P,SW21,2,2_2*%
%TO.N,Net-(D11-A)*%
X84190000Y-82460000D03*
%TD*%
D10*
%TO.P,D14,1,K_1*%
%TO.N,/col1*%
X139190000Y-89250000D03*
D11*
%TO.P,D14,2,A_2*%
%TO.N,Net-(D14-A)*%
X146810000Y-89250000D03*
%TD*%
D12*
%TO.P,SW23,1,1_1*%
%TO.N,/row1*%
X110040000Y-60420000D03*
%TO.P,SW23,2,2_2*%
%TO.N,Net-(D13-A)*%
X103690000Y-62960000D03*
%TD*%
D10*
%TO.P,D12,1,K_1*%
%TO.N,/col3*%
X139190000Y-82150000D03*
D11*
%TO.P,D12,2,A_2*%
%TO.N,Net-(D12-A)*%
X146810000Y-82150000D03*
%TD*%
D10*
%TO.P,D13,1,K_1*%
%TO.N,/col0*%
X139190000Y-85700000D03*
D11*
%TO.P,D13,2,A_2*%
%TO.N,Net-(D13-A)*%
X146810000Y-85700000D03*
%TD*%
D12*
%TO.P,SW15,1,1_1*%
%TO.N,/row2*%
X129460000Y-79920000D03*
%TO.P,SW15,2,2_2*%
%TO.N,Net-(D5-A)*%
X123110000Y-82460000D03*
%TD*%
%TO.P,SW24,1,1_1*%
%TO.N,/row1*%
X110040000Y-79920000D03*
%TO.P,SW24,2,2_2*%
%TO.N,Net-(D14-A)*%
X103690000Y-82460000D03*
%TD*%
D10*
%TO.P,D11,1,K_1*%
%TO.N,/col2*%
X139190000Y-78600000D03*
D11*
%TO.P,D11,2,A_2*%
%TO.N,Net-(D11-A)*%
X146810000Y-78600000D03*
%TD*%
D18*
%TO.P,U1,1,PA02_A0_D0_1*%
%TO.N,/row0*%
X97500000Y-152407985D03*
D19*
%TO.P,U1,2,PA4_A1_D1_2*%
%TO.N,/row1*%
X97500000Y-149867985D03*
%TO.P,U1,3,PA10_A2_D2_3*%
%TO.N,/row2*%
X97500000Y-147327985D03*
%TO.P,U1,4,PA11_A3_D3_4*%
%TO.N,/col0*%
X97500000Y-144787985D03*
%TO.P,U1,5,PA8_A4_D4_SDA_5*%
%TO.N,Net-(J1-Pin_4)*%
X97500000Y-142247985D03*
%TO.P,U1,6,PA9_A5_D5_SCL_6*%
%TO.N,Net-(J1-Pin_3)*%
X97500000Y-139707985D03*
%TO.P,U1,7,PB08_A6_D6_TX_7*%
%TO.N,/col3*%
X97500000Y-137167985D03*
%TO.P,U1,8,PB09_A7_D7_RX_8*%
%TO.N,Net-(U1-PB09_A7_D7_RX)*%
X80250000Y-137167985D03*
%TO.P,U1,9,PA7_A8_D8_SCK_9*%
%TO.N,Net-(U1-PA7_A8_D8_SCK)*%
X80250000Y-139707985D03*
%TO.P,U1,10,PA5_A9_D9_MISO_10*%
%TO.N,/col2*%
X80250000Y-142247985D03*
D20*
%TO.P,U1,11,PA6_A10_D10_MOSI_11*%
%TO.N,/col1*%
X80250000Y-144787985D03*
%TO.P,U1,12,3V3_12*%
%TO.N,+3.3V*%
X80250000Y-147327985D03*
%TO.P,U1,13,GND_13*%
%TO.N,GND*%
X80250000Y-149867985D03*
%TO.P,U1,14,5V_14*%
%TO.N,+5V*%
X80250000Y-152407985D03*
%TD*%
D21*
%TO.N,/col2*%
X134490000Y-78500000D03*
X122000000Y-118250000D03*
X136890000Y-64250000D03*
X128000000Y-109750000D03*
X134000000Y-109500000D03*
%TO.N,Net-(D10-A)*%
X131000000Y-70250000D03*
X116000000Y-80000000D03*
X128750000Y-71500000D03*
X135090000Y-73500000D03*
%TO.N,/col0*%
X135690000Y-71500000D03*
%TO.N,Net-(U1-PA7_A8_D8_SCK)*%
X93815687Y-136565687D03*
X89771430Y-141521430D03*
X93500000Y-138500000D03*
%TO.N,Net-(U1-PB09_A7_D7_RX)*%
X93250000Y-136000000D03*
X85500000Y-136250000D03*
X91500000Y-135750000D03*
X95500000Y-135000000D03*
%TO.N,/col1*%
X135090000Y-75000000D03*
X133750000Y-75250000D03*
X117750000Y-84500000D03*
X128750000Y-76500000D03*
X137490000Y-60750000D03*
%TO.N,Net-(D12-A)*%
X137250000Y-87250000D03*
X125750000Y-101500000D03*
X135250000Y-87500000D03*
%TO.N,Net-(D9-A)*%
X146210000Y-101500000D03*
X118250000Y-98250000D03*
X123000000Y-98250000D03*
%TO.N,/col3*%
X136290000Y-67750000D03*
X147250000Y-112250000D03*
%TO.N,Net-(D14-A)*%
X119000000Y-82000000D03*
X128500000Y-77750000D03*
X132500000Y-81750000D03*
X132250000Y-79000000D03*
%TO.N,Net-(D13-A)*%
X128750000Y-102500000D03*
X119750000Y-85250000D03*
%TO.N,+3.3V*%
X83500000Y-148750000D03*
%TD*%
%TO.N,/col2*%
D22*
X107367056Y-120750000D02*
X117820000Y-120750000D01*
X120320000Y-118250000D02*
X122000000Y-118250000D01*
X133750000Y-109750000D02*
X134000000Y-109500000D01*
X77700000Y-145104331D02*
X78773654Y-146177985D01*
X139190000Y-64100000D02*
X139040000Y-64250000D01*
X80163654Y-142247985D02*
X77700000Y-144711639D01*
X81939071Y-146177985D02*
X107367056Y-120750000D01*
X77700000Y-144711639D02*
X77700000Y-145104331D01*
X134590000Y-78600000D02*
X134490000Y-78500000D01*
X139040000Y-64250000D02*
X136890000Y-64250000D01*
X139190000Y-63500000D02*
X139190000Y-64100000D01*
X139190000Y-78600000D02*
X134590000Y-78600000D01*
X117820000Y-120750000D02*
X120320000Y-118250000D01*
X128000000Y-109750000D02*
X133750000Y-109750000D01*
X81250000Y-142247985D02*
X80163654Y-142247985D01*
X78773654Y-146177985D02*
X81939071Y-146177985D01*
%TO.N,Net-(D15-A)*%
X147910000Y-110164164D02*
X147910000Y-93900000D01*
X103690000Y-101960000D02*
X103690000Y-119480101D01*
X108870101Y-117100000D02*
X122670000Y-117100000D01*
X103110101Y-122860000D02*
X104269899Y-122860000D01*
X134874164Y-123200000D02*
X147910000Y-110164164D01*
X122670000Y-117100000D02*
X128770000Y-123200000D01*
X147910000Y-93900000D02*
X146810000Y-92800000D01*
X105090000Y-122039899D02*
X105090000Y-120880101D01*
X105090000Y-120880101D02*
X108870101Y-117100000D01*
X104269899Y-122860000D02*
X105090000Y-122039899D01*
X102290000Y-122039899D02*
X103110101Y-122860000D01*
X103690000Y-119480101D02*
X102290000Y-120880101D01*
X128770000Y-123200000D02*
X134874164Y-123200000D01*
X102290000Y-120880101D02*
X102290000Y-122039899D01*
%TO.N,Net-(D10-A)*%
X135090000Y-73500000D02*
X145260000Y-73500000D01*
X128750000Y-71500000D02*
X130000000Y-70250000D01*
X105650101Y-78520000D02*
X114520000Y-78520000D01*
X84190000Y-101960000D02*
X84190000Y-99980101D01*
X130000000Y-70250000D02*
X131000000Y-70250000D01*
X84190000Y-99980101D02*
X105650101Y-78520000D01*
X114520000Y-78520000D02*
X116000000Y-80000000D01*
X145260000Y-73500000D02*
X146810000Y-75050000D01*
%TO.N,/col0*%
X96073654Y-138557985D02*
X99255669Y-138557985D01*
X96500000Y-144787985D02*
X95400000Y-143687985D01*
X148310000Y-110329849D02*
X148310000Y-82094365D01*
X110013654Y-127800000D02*
X130839849Y-127800000D01*
X147265635Y-81050000D02*
X143840000Y-81050000D01*
X148310000Y-82094365D02*
X147265635Y-81050000D01*
X95400000Y-143687985D02*
X95400000Y-139231639D01*
X95400000Y-139231639D02*
X96073654Y-138557985D01*
X143840000Y-81050000D02*
X139190000Y-85700000D01*
X136690000Y-71500000D02*
X135690000Y-71500000D01*
X130839849Y-127800000D02*
X148310000Y-110329849D01*
X99255669Y-138557985D02*
X110013654Y-127800000D01*
X139190000Y-69000000D02*
X136690000Y-71500000D01*
%TO.N,Net-(D3-A)*%
X120500000Y-107830000D02*
X120500000Y-58500000D01*
X134170000Y-121500000D02*
X120500000Y-107830000D01*
X122250000Y-56750000D02*
X146260000Y-56750000D01*
X146810000Y-57300000D02*
X146810000Y-58250000D01*
X146260000Y-56750000D02*
X146810000Y-57300000D01*
X120500000Y-58500000D02*
X122250000Y-56750000D01*
%TO.N,Net-(U1-PA7_A8_D8_SCK)*%
X114131522Y-127038478D02*
X119670000Y-121500000D01*
X94934313Y-136565687D02*
X104461522Y-127038478D01*
X104461522Y-127038478D02*
X114131522Y-127038478D01*
X93815687Y-136565687D02*
X94934313Y-136565687D01*
X89771430Y-141521430D02*
X92792860Y-138500000D01*
X92792860Y-138500000D02*
X93500000Y-138500000D01*
%TO.N,Net-(U1-PB09_A7_D7_RX)*%
X94250000Y-135000000D02*
X93250000Y-136000000D01*
X91500000Y-135750000D02*
X91000000Y-136250000D01*
X95500000Y-135000000D02*
X94250000Y-135000000D01*
X91000000Y-136250000D02*
X85500000Y-136250000D01*
%TO.N,GND*%
X85180000Y-145937985D02*
X81250000Y-149867985D01*
X101122015Y-145937985D02*
X85180000Y-145937985D01*
X101750000Y-145310000D02*
X101122015Y-145937985D01*
%TO.N,Net-(J1-Pin_3)*%
X97022015Y-140230000D02*
X96500000Y-139707985D01*
X101750000Y-140230000D02*
X97022015Y-140230000D01*
%TO.N,Net-(J1-Pin_4)*%
X102900000Y-138840000D02*
X102900000Y-140946346D01*
X97127985Y-141620000D02*
X96500000Y-142247985D01*
X102900000Y-140946346D02*
X102226346Y-141620000D01*
X101750000Y-137690000D02*
X102900000Y-138840000D01*
X102226346Y-141620000D02*
X97127985Y-141620000D01*
%TO.N,Net-(D5-A)*%
X146460000Y-64750000D02*
X146810000Y-64400000D01*
X138441471Y-64750000D02*
X146460000Y-64750000D01*
X146810000Y-64400000D02*
X146810000Y-63500000D01*
X123110000Y-82460000D02*
X123110000Y-80081471D01*
X123110000Y-80081471D02*
X138441471Y-64750000D01*
%TO.N,Net-(D4-A)*%
X128960101Y-59020000D02*
X130119899Y-59020000D01*
X130599899Y-59500000D02*
X145460000Y-59500000D01*
X126650000Y-59500000D02*
X128480101Y-59500000D01*
X145460000Y-59500000D02*
X146810000Y-60850000D01*
X123190000Y-62960000D02*
X126650000Y-59500000D01*
X128480101Y-59500000D02*
X128960101Y-59020000D01*
X130119899Y-59020000D02*
X130599899Y-59500000D01*
%TO.N,Net-(D6-A)*%
X134490000Y-71260000D02*
X137400000Y-68350000D01*
X123110000Y-101960000D02*
X129270000Y-95800000D01*
X133890000Y-78610000D02*
X133890000Y-78251471D01*
X137655686Y-68350000D02*
X138655686Y-67350000D01*
X138655686Y-67350000D02*
X139974744Y-67350000D01*
X140074744Y-67250000D02*
X146110000Y-67250000D01*
X146110000Y-66950000D02*
X146810000Y-66250000D01*
X139974744Y-67350000D02*
X140074744Y-67250000D01*
X133890000Y-78251471D02*
X134241471Y-77900000D01*
X129270000Y-83230000D02*
X133890000Y-78610000D01*
X134490000Y-77900000D02*
X134490000Y-71260000D01*
X137400000Y-68350000D02*
X137655686Y-68350000D01*
X134241471Y-77900000D02*
X134490000Y-77900000D01*
X146110000Y-67250000D02*
X146110000Y-66950000D01*
X129270000Y-95800000D02*
X129270000Y-83230000D01*
%TO.N,/col1*%
X82790000Y-122039899D02*
X82790000Y-119460000D01*
X84769899Y-141268086D02*
X84769899Y-124019798D01*
X135140000Y-75050000D02*
X135090000Y-75000000D01*
X82790000Y-119460000D02*
X117750000Y-84500000D01*
X137590000Y-60850000D02*
X137490000Y-60750000D01*
X84769899Y-124019798D02*
X82790000Y-122039899D01*
X139190000Y-75050000D02*
X135140000Y-75050000D01*
X81250000Y-144787985D02*
X84769899Y-141268086D01*
X139190000Y-60850000D02*
X137590000Y-60850000D01*
X128750000Y-76500000D02*
X132500000Y-76500000D01*
X132500000Y-76500000D02*
X133750000Y-75250000D01*
%TO.N,Net-(D16-A)*%
X103690000Y-121460000D02*
X117154314Y-107995686D01*
X132870000Y-122038478D02*
X133631522Y-122800000D01*
X134708478Y-122800000D02*
X146810000Y-110698478D01*
X119904164Y-107995686D02*
X132870000Y-120961522D01*
X117154314Y-107995686D02*
X119904164Y-107995686D01*
X132870000Y-120961522D02*
X132870000Y-122038478D01*
X146810000Y-110698478D02*
X146810000Y-96350000D01*
X133631522Y-122800000D02*
X134708478Y-122800000D01*
%TO.N,Net-(D12-A)*%
X141710000Y-87250000D02*
X137250000Y-87250000D01*
X125750000Y-101150101D02*
X125750000Y-101500000D01*
X135250000Y-87500000D02*
X135250000Y-91650101D01*
X135250000Y-91650101D02*
X125750000Y-101150101D01*
X146810000Y-82150000D02*
X141710000Y-87250000D01*
%TO.N,Net-(D9-A)*%
X103110101Y-100560000D02*
X104269899Y-100560000D01*
X121710000Y-99540000D02*
X121710000Y-102613402D01*
X123000000Y-98250000D02*
X121710000Y-99540000D01*
X143250000Y-101500000D02*
X146210000Y-101500000D01*
X115119899Y-101380101D02*
X118250000Y-98250000D01*
X138150000Y-106850000D02*
X143000000Y-102000000D01*
X121710000Y-102613402D02*
X125946598Y-106850000D01*
X105090000Y-101380101D02*
X115119899Y-101380101D01*
X84190000Y-121460000D02*
X84190000Y-119480101D01*
X143000000Y-102000000D02*
X143000000Y-101750000D01*
X143000000Y-101750000D02*
X143250000Y-101500000D01*
X125946598Y-106850000D02*
X138150000Y-106850000D01*
X84190000Y-119480101D02*
X103110101Y-100560000D01*
X104269899Y-100560000D02*
X105090000Y-101380101D01*
%TO.N,/col3*%
X124800000Y-128200000D02*
X99442015Y-153557985D01*
X134005534Y-125200000D02*
X134708478Y-125200000D01*
X147250000Y-112250000D02*
X148750000Y-113750000D01*
X132870000Y-127038478D02*
X132870000Y-126335534D01*
X135470000Y-125961522D02*
X135470000Y-127038478D01*
X78773654Y-148717985D02*
X81726346Y-148717985D01*
X148750000Y-113750000D02*
X145455535Y-113750000D01*
X81726346Y-148717985D02*
X93276346Y-137167985D01*
X78773654Y-153557985D02*
X78100000Y-152884331D01*
X78100000Y-152884331D02*
X78100000Y-149391639D01*
X99442015Y-153557985D02*
X78773654Y-153557985D01*
X136490000Y-67950000D02*
X136290000Y-67750000D01*
X139190000Y-66250000D02*
X137490000Y-67950000D01*
X131005534Y-128200000D02*
X124800000Y-128200000D01*
X134708478Y-127800000D02*
X133631522Y-127800000D01*
X134708478Y-125200000D02*
X135470000Y-125961522D01*
X145455535Y-113750000D02*
X134005534Y-125200000D01*
X133631522Y-127800000D02*
X132870000Y-127038478D01*
X93276346Y-137167985D02*
X96500000Y-137167985D01*
X137490000Y-67950000D02*
X136490000Y-67950000D01*
X135470000Y-127038478D02*
X134708478Y-127800000D01*
X78100000Y-149391639D02*
X78773654Y-148717985D01*
X132870000Y-126335534D02*
X131005534Y-128200000D01*
%TO.N,Net-(D11-A)*%
X148750000Y-76660000D02*
X146810000Y-78600000D01*
X147315635Y-56250000D02*
X148750000Y-57684365D01*
X84190000Y-82460000D02*
X84190000Y-80480101D01*
X84190000Y-80480101D02*
X108420101Y-56250000D01*
X148750000Y-57684365D02*
X148750000Y-76660000D01*
X108420101Y-56250000D02*
X147315635Y-56250000D01*
%TO.N,Net-(D14-A)*%
X145710000Y-90350000D02*
X146810000Y-89250000D01*
X131000000Y-77750000D02*
X132250000Y-79000000D01*
X104150000Y-82000000D02*
X119000000Y-82000000D01*
X132500000Y-81750000D02*
X136000000Y-85250000D01*
X138405256Y-90350000D02*
X145710000Y-90350000D01*
X128500000Y-77750000D02*
X131000000Y-77750000D01*
X136000000Y-87944744D02*
X138405256Y-90350000D01*
X136000000Y-85250000D02*
X136000000Y-87944744D01*
X103690000Y-82460000D02*
X104150000Y-82000000D01*
%TO.N,Net-(D13-A)*%
X128750000Y-102500000D02*
X135000000Y-102500000D01*
X147910000Y-86800000D02*
X146810000Y-85700000D01*
X147099950Y-90515685D02*
X147910000Y-89705635D01*
X103690000Y-65841471D02*
X119750000Y-81901471D01*
X119750000Y-81901471D02*
X119750000Y-85250000D01*
X147910000Y-89705635D02*
X147910000Y-86800000D01*
X103690000Y-62960000D02*
X103690000Y-65841471D01*
X146110000Y-91390000D02*
X146110000Y-90515685D01*
X146110000Y-90515685D02*
X147099950Y-90515685D01*
X135000000Y-102500000D02*
X146110000Y-91390000D01*
%TO.N,+3.3V*%
X99550000Y-151257985D02*
X82500000Y-151257985D01*
X102900000Y-147907985D02*
X99550000Y-151257985D01*
X83500000Y-150257985D02*
X83500000Y-148750000D01*
X102900000Y-143920000D02*
X102900000Y-147907985D01*
X82500000Y-151257985D02*
X83500000Y-150257985D01*
X101750000Y-142770000D02*
X102900000Y-143920000D01*
%TD*%
M02*
