%TF.GenerationSoftware,KiCad,Pcbnew,10.0.5*%
%TF.CreationDate,2026-08-06T10:00:31-07:00*%
%TF.ProjectId,Hackpad,4861636b-7061-4642-9e6b-696361645f70,rev?*%
%TF.SameCoordinates,Original*%
%TF.FileFunction,Legend,Top*%
%TF.FilePolarity,Positive*%
%FSLAX46Y46*%
G04 Gerber Fmt 4.6, Leading zero omitted, Abs format (unit mm)*
G04 Created by KiCad (PCBNEW 10.0.5) date 2026-08-06 10:00:31*
%MOMM*%
%LPD*%
G01*
G04 APERTURE LIST*
%ADD10C,0.150000*%
%ADD11C,0.300000*%
%ADD12C,0.101600*%
%ADD13C,0.120000*%
%ADD14C,0.040000*%
%ADD15C,0.127000*%
%ADD16C,0.254000*%
%ADD17C,0.025400*%
G04 APERTURE END LIST*
D10*
X138928095Y-91454819D02*
X138928095Y-90454819D01*
X139499523Y-91454819D02*
X139070952Y-90883390D01*
X139499523Y-90454819D02*
X138928095Y-91026247D01*
X86190476Y-97033200D02*
X86333333Y-97080819D01*
X86333333Y-97080819D02*
X86571428Y-97080819D01*
X86571428Y-97080819D02*
X86666666Y-97033200D01*
X86666666Y-97033200D02*
X86714285Y-96985580D01*
X86714285Y-96985580D02*
X86761904Y-96890342D01*
X86761904Y-96890342D02*
X86761904Y-96795104D01*
X86761904Y-96795104D02*
X86714285Y-96699866D01*
X86714285Y-96699866D02*
X86666666Y-96652247D01*
X86666666Y-96652247D02*
X86571428Y-96604628D01*
X86571428Y-96604628D02*
X86380952Y-96557009D01*
X86380952Y-96557009D02*
X86285714Y-96509390D01*
X86285714Y-96509390D02*
X86238095Y-96461771D01*
X86238095Y-96461771D02*
X86190476Y-96366533D01*
X86190476Y-96366533D02*
X86190476Y-96271295D01*
X86190476Y-96271295D02*
X86238095Y-96176057D01*
X86238095Y-96176057D02*
X86285714Y-96128438D01*
X86285714Y-96128438D02*
X86380952Y-96080819D01*
X86380952Y-96080819D02*
X86619047Y-96080819D01*
X86619047Y-96080819D02*
X86761904Y-96128438D01*
X87095238Y-96080819D02*
X87333333Y-97080819D01*
X87333333Y-97080819D02*
X87523809Y-96366533D01*
X87523809Y-96366533D02*
X87714285Y-97080819D01*
X87714285Y-97080819D02*
X87952381Y-96080819D01*
X88285714Y-96176057D02*
X88333333Y-96128438D01*
X88333333Y-96128438D02*
X88428571Y-96080819D01*
X88428571Y-96080819D02*
X88666666Y-96080819D01*
X88666666Y-96080819D02*
X88761904Y-96128438D01*
X88761904Y-96128438D02*
X88809523Y-96176057D01*
X88809523Y-96176057D02*
X88857142Y-96271295D01*
X88857142Y-96271295D02*
X88857142Y-96366533D01*
X88857142Y-96366533D02*
X88809523Y-96509390D01*
X88809523Y-96509390D02*
X88238095Y-97080819D01*
X88238095Y-97080819D02*
X88857142Y-97080819D01*
X89476190Y-96080819D02*
X89571428Y-96080819D01*
X89571428Y-96080819D02*
X89666666Y-96128438D01*
X89666666Y-96128438D02*
X89714285Y-96176057D01*
X89714285Y-96176057D02*
X89761904Y-96271295D01*
X89761904Y-96271295D02*
X89809523Y-96461771D01*
X89809523Y-96461771D02*
X89809523Y-96699866D01*
X89809523Y-96699866D02*
X89761904Y-96890342D01*
X89761904Y-96890342D02*
X89714285Y-96985580D01*
X89714285Y-96985580D02*
X89666666Y-97033200D01*
X89666666Y-97033200D02*
X89571428Y-97080819D01*
X89571428Y-97080819D02*
X89476190Y-97080819D01*
X89476190Y-97080819D02*
X89380952Y-97033200D01*
X89380952Y-97033200D02*
X89333333Y-96985580D01*
X89333333Y-96985580D02*
X89285714Y-96890342D01*
X89285714Y-96890342D02*
X89238095Y-96699866D01*
X89238095Y-96699866D02*
X89238095Y-96461771D01*
X89238095Y-96461771D02*
X89285714Y-96271295D01*
X89285714Y-96271295D02*
X89333333Y-96176057D01*
X89333333Y-96176057D02*
X89380952Y-96128438D01*
X89380952Y-96128438D02*
X89476190Y-96080819D01*
X138928095Y-56904819D02*
X138928095Y-55904819D01*
X139499523Y-56904819D02*
X139070952Y-56333390D01*
X139499523Y-55904819D02*
X138928095Y-56476247D01*
X105690476Y-97033200D02*
X105833333Y-97080819D01*
X105833333Y-97080819D02*
X106071428Y-97080819D01*
X106071428Y-97080819D02*
X106166666Y-97033200D01*
X106166666Y-97033200D02*
X106214285Y-96985580D01*
X106214285Y-96985580D02*
X106261904Y-96890342D01*
X106261904Y-96890342D02*
X106261904Y-96795104D01*
X106261904Y-96795104D02*
X106214285Y-96699866D01*
X106214285Y-96699866D02*
X106166666Y-96652247D01*
X106166666Y-96652247D02*
X106071428Y-96604628D01*
X106071428Y-96604628D02*
X105880952Y-96557009D01*
X105880952Y-96557009D02*
X105785714Y-96509390D01*
X105785714Y-96509390D02*
X105738095Y-96461771D01*
X105738095Y-96461771D02*
X105690476Y-96366533D01*
X105690476Y-96366533D02*
X105690476Y-96271295D01*
X105690476Y-96271295D02*
X105738095Y-96176057D01*
X105738095Y-96176057D02*
X105785714Y-96128438D01*
X105785714Y-96128438D02*
X105880952Y-96080819D01*
X105880952Y-96080819D02*
X106119047Y-96080819D01*
X106119047Y-96080819D02*
X106261904Y-96128438D01*
X106595238Y-96080819D02*
X106833333Y-97080819D01*
X106833333Y-97080819D02*
X107023809Y-96366533D01*
X107023809Y-96366533D02*
X107214285Y-97080819D01*
X107214285Y-97080819D02*
X107452381Y-96080819D01*
X107785714Y-96176057D02*
X107833333Y-96128438D01*
X107833333Y-96128438D02*
X107928571Y-96080819D01*
X107928571Y-96080819D02*
X108166666Y-96080819D01*
X108166666Y-96080819D02*
X108261904Y-96128438D01*
X108261904Y-96128438D02*
X108309523Y-96176057D01*
X108309523Y-96176057D02*
X108357142Y-96271295D01*
X108357142Y-96271295D02*
X108357142Y-96366533D01*
X108357142Y-96366533D02*
X108309523Y-96509390D01*
X108309523Y-96509390D02*
X107738095Y-97080819D01*
X107738095Y-97080819D02*
X108357142Y-97080819D01*
X109261904Y-96080819D02*
X108785714Y-96080819D01*
X108785714Y-96080819D02*
X108738095Y-96557009D01*
X108738095Y-96557009D02*
X108785714Y-96509390D01*
X108785714Y-96509390D02*
X108880952Y-96461771D01*
X108880952Y-96461771D02*
X109119047Y-96461771D01*
X109119047Y-96461771D02*
X109214285Y-96509390D01*
X109214285Y-96509390D02*
X109261904Y-96557009D01*
X109261904Y-96557009D02*
X109309523Y-96652247D01*
X109309523Y-96652247D02*
X109309523Y-96890342D01*
X109309523Y-96890342D02*
X109261904Y-96985580D01*
X109261904Y-96985580D02*
X109214285Y-97033200D01*
X109214285Y-97033200D02*
X109119047Y-97080819D01*
X109119047Y-97080819D02*
X108880952Y-97080819D01*
X108880952Y-97080819D02*
X108785714Y-97033200D01*
X108785714Y-97033200D02*
X108738095Y-96985580D01*
X121136667Y-117207200D02*
X121279524Y-117254819D01*
X121279524Y-117254819D02*
X121517619Y-117254819D01*
X121517619Y-117254819D02*
X121612857Y-117207200D01*
X121612857Y-117207200D02*
X121660476Y-117159580D01*
X121660476Y-117159580D02*
X121708095Y-117064342D01*
X121708095Y-117064342D02*
X121708095Y-116969104D01*
X121708095Y-116969104D02*
X121660476Y-116873866D01*
X121660476Y-116873866D02*
X121612857Y-116826247D01*
X121612857Y-116826247D02*
X121517619Y-116778628D01*
X121517619Y-116778628D02*
X121327143Y-116731009D01*
X121327143Y-116731009D02*
X121231905Y-116683390D01*
X121231905Y-116683390D02*
X121184286Y-116635771D01*
X121184286Y-116635771D02*
X121136667Y-116540533D01*
X121136667Y-116540533D02*
X121136667Y-116445295D01*
X121136667Y-116445295D02*
X121184286Y-116350057D01*
X121184286Y-116350057D02*
X121231905Y-116302438D01*
X121231905Y-116302438D02*
X121327143Y-116254819D01*
X121327143Y-116254819D02*
X121565238Y-116254819D01*
X121565238Y-116254819D02*
X121708095Y-116302438D01*
X122041429Y-116254819D02*
X122279524Y-117254819D01*
X122279524Y-117254819D02*
X122470000Y-116540533D01*
X122470000Y-116540533D02*
X122660476Y-117254819D01*
X122660476Y-117254819D02*
X122898572Y-116254819D01*
X123708095Y-116588152D02*
X123708095Y-117254819D01*
X123470000Y-116207200D02*
X123231905Y-116921485D01*
X123231905Y-116921485D02*
X123850952Y-116921485D01*
X135804819Y-141923333D02*
X136519104Y-141923333D01*
X136519104Y-141923333D02*
X136661961Y-141970952D01*
X136661961Y-141970952D02*
X136757200Y-142066190D01*
X136757200Y-142066190D02*
X136804819Y-142209047D01*
X136804819Y-142209047D02*
X136804819Y-142304285D01*
X136804819Y-140923333D02*
X136804819Y-141494761D01*
X136804819Y-141209047D02*
X135804819Y-141209047D01*
X135804819Y-141209047D02*
X135947676Y-141304285D01*
X135947676Y-141304285D02*
X136042914Y-141399523D01*
X136042914Y-141399523D02*
X136090533Y-141494761D01*
X104053450Y-138600713D02*
X104089164Y-138493571D01*
X104089164Y-138493571D02*
X104089164Y-138314999D01*
X104089164Y-138314999D02*
X104053450Y-138243571D01*
X104053450Y-138243571D02*
X104017735Y-138207856D01*
X104017735Y-138207856D02*
X103946307Y-138172142D01*
X103946307Y-138172142D02*
X103874878Y-138172142D01*
X103874878Y-138172142D02*
X103803450Y-138207856D01*
X103803450Y-138207856D02*
X103767735Y-138243571D01*
X103767735Y-138243571D02*
X103732021Y-138314999D01*
X103732021Y-138314999D02*
X103696307Y-138457856D01*
X103696307Y-138457856D02*
X103660592Y-138529285D01*
X103660592Y-138529285D02*
X103624878Y-138564999D01*
X103624878Y-138564999D02*
X103553450Y-138600713D01*
X103553450Y-138600713D02*
X103482021Y-138600713D01*
X103482021Y-138600713D02*
X103410592Y-138564999D01*
X103410592Y-138564999D02*
X103374878Y-138529285D01*
X103374878Y-138529285D02*
X103339164Y-138457856D01*
X103339164Y-138457856D02*
X103339164Y-138279285D01*
X103339164Y-138279285D02*
X103374878Y-138172142D01*
X104089164Y-137850713D02*
X103339164Y-137850713D01*
X103339164Y-137850713D02*
X103339164Y-137672142D01*
X103339164Y-137672142D02*
X103374878Y-137564999D01*
X103374878Y-137564999D02*
X103446307Y-137493570D01*
X103446307Y-137493570D02*
X103517735Y-137457856D01*
X103517735Y-137457856D02*
X103660592Y-137422142D01*
X103660592Y-137422142D02*
X103767735Y-137422142D01*
X103767735Y-137422142D02*
X103910592Y-137457856D01*
X103910592Y-137457856D02*
X103982021Y-137493570D01*
X103982021Y-137493570D02*
X104053450Y-137564999D01*
X104053450Y-137564999D02*
X104089164Y-137672142D01*
X104089164Y-137672142D02*
X104089164Y-137850713D01*
X103874878Y-137136427D02*
X103874878Y-136779285D01*
X104089164Y-137207856D02*
X103339164Y-136957856D01*
X103339164Y-136957856D02*
X104089164Y-136707856D01*
X104053450Y-141122856D02*
X104089164Y-141015714D01*
X104089164Y-141015714D02*
X104089164Y-140837142D01*
X104089164Y-140837142D02*
X104053450Y-140765714D01*
X104053450Y-140765714D02*
X104017735Y-140729999D01*
X104017735Y-140729999D02*
X103946307Y-140694285D01*
X103946307Y-140694285D02*
X103874878Y-140694285D01*
X103874878Y-140694285D02*
X103803450Y-140729999D01*
X103803450Y-140729999D02*
X103767735Y-140765714D01*
X103767735Y-140765714D02*
X103732021Y-140837142D01*
X103732021Y-140837142D02*
X103696307Y-140979999D01*
X103696307Y-140979999D02*
X103660592Y-141051428D01*
X103660592Y-141051428D02*
X103624878Y-141087142D01*
X103624878Y-141087142D02*
X103553450Y-141122856D01*
X103553450Y-141122856D02*
X103482021Y-141122856D01*
X103482021Y-141122856D02*
X103410592Y-141087142D01*
X103410592Y-141087142D02*
X103374878Y-141051428D01*
X103374878Y-141051428D02*
X103339164Y-140979999D01*
X103339164Y-140979999D02*
X103339164Y-140801428D01*
X103339164Y-140801428D02*
X103374878Y-140694285D01*
X104017735Y-139944285D02*
X104053450Y-139979999D01*
X104053450Y-139979999D02*
X104089164Y-140087142D01*
X104089164Y-140087142D02*
X104089164Y-140158570D01*
X104089164Y-140158570D02*
X104053450Y-140265713D01*
X104053450Y-140265713D02*
X103982021Y-140337142D01*
X103982021Y-140337142D02*
X103910592Y-140372856D01*
X103910592Y-140372856D02*
X103767735Y-140408570D01*
X103767735Y-140408570D02*
X103660592Y-140408570D01*
X103660592Y-140408570D02*
X103517735Y-140372856D01*
X103517735Y-140372856D02*
X103446307Y-140337142D01*
X103446307Y-140337142D02*
X103374878Y-140265713D01*
X103374878Y-140265713D02*
X103339164Y-140158570D01*
X103339164Y-140158570D02*
X103339164Y-140087142D01*
X103339164Y-140087142D02*
X103374878Y-139979999D01*
X103374878Y-139979999D02*
X103410592Y-139944285D01*
X104089164Y-139265713D02*
X104089164Y-139622856D01*
X104089164Y-139622856D02*
X103339164Y-139622856D01*
X103339164Y-143769999D02*
X104089164Y-143519999D01*
X104089164Y-143519999D02*
X103339164Y-143269999D01*
X104017735Y-142591428D02*
X104053450Y-142627142D01*
X104053450Y-142627142D02*
X104089164Y-142734285D01*
X104089164Y-142734285D02*
X104089164Y-142805713D01*
X104089164Y-142805713D02*
X104053450Y-142912856D01*
X104053450Y-142912856D02*
X103982021Y-142984285D01*
X103982021Y-142984285D02*
X103910592Y-143019999D01*
X103910592Y-143019999D02*
X103767735Y-143055713D01*
X103767735Y-143055713D02*
X103660592Y-143055713D01*
X103660592Y-143055713D02*
X103517735Y-143019999D01*
X103517735Y-143019999D02*
X103446307Y-142984285D01*
X103446307Y-142984285D02*
X103374878Y-142912856D01*
X103374878Y-142912856D02*
X103339164Y-142805713D01*
X103339164Y-142805713D02*
X103339164Y-142734285D01*
X103339164Y-142734285D02*
X103374878Y-142627142D01*
X103374878Y-142627142D02*
X103410592Y-142591428D01*
X104017735Y-141841428D02*
X104053450Y-141877142D01*
X104053450Y-141877142D02*
X104089164Y-141984285D01*
X104089164Y-141984285D02*
X104089164Y-142055713D01*
X104089164Y-142055713D02*
X104053450Y-142162856D01*
X104053450Y-142162856D02*
X103982021Y-142234285D01*
X103982021Y-142234285D02*
X103910592Y-142269999D01*
X103910592Y-142269999D02*
X103767735Y-142305713D01*
X103767735Y-142305713D02*
X103660592Y-142305713D01*
X103660592Y-142305713D02*
X103517735Y-142269999D01*
X103517735Y-142269999D02*
X103446307Y-142234285D01*
X103446307Y-142234285D02*
X103374878Y-142162856D01*
X103374878Y-142162856D02*
X103339164Y-142055713D01*
X103339164Y-142055713D02*
X103339164Y-141984285D01*
X103339164Y-141984285D02*
X103374878Y-141877142D01*
X103374878Y-141877142D02*
X103410592Y-141841428D01*
X103374878Y-145881428D02*
X103339164Y-145952857D01*
X103339164Y-145952857D02*
X103339164Y-146059999D01*
X103339164Y-146059999D02*
X103374878Y-146167142D01*
X103374878Y-146167142D02*
X103446307Y-146238571D01*
X103446307Y-146238571D02*
X103517735Y-146274285D01*
X103517735Y-146274285D02*
X103660592Y-146309999D01*
X103660592Y-146309999D02*
X103767735Y-146309999D01*
X103767735Y-146309999D02*
X103910592Y-146274285D01*
X103910592Y-146274285D02*
X103982021Y-146238571D01*
X103982021Y-146238571D02*
X104053450Y-146167142D01*
X104053450Y-146167142D02*
X104089164Y-146059999D01*
X104089164Y-146059999D02*
X104089164Y-145988571D01*
X104089164Y-145988571D02*
X104053450Y-145881428D01*
X104053450Y-145881428D02*
X104017735Y-145845714D01*
X104017735Y-145845714D02*
X103767735Y-145845714D01*
X103767735Y-145845714D02*
X103767735Y-145988571D01*
X104089164Y-145524285D02*
X103339164Y-145524285D01*
X103339164Y-145524285D02*
X104089164Y-145095714D01*
X104089164Y-145095714D02*
X103339164Y-145095714D01*
X104089164Y-144738571D02*
X103339164Y-144738571D01*
X103339164Y-144738571D02*
X103339164Y-144560000D01*
X103339164Y-144560000D02*
X103374878Y-144452857D01*
X103374878Y-144452857D02*
X103446307Y-144381428D01*
X103446307Y-144381428D02*
X103517735Y-144345714D01*
X103517735Y-144345714D02*
X103660592Y-144310000D01*
X103660592Y-144310000D02*
X103767735Y-144310000D01*
X103767735Y-144310000D02*
X103910592Y-144345714D01*
X103910592Y-144345714D02*
X103982021Y-144381428D01*
X103982021Y-144381428D02*
X104053450Y-144452857D01*
X104053450Y-144452857D02*
X104089164Y-144560000D01*
X104089164Y-144560000D02*
X104089164Y-144738571D01*
X115321428Y-140954819D02*
X115511904Y-140954819D01*
X115511904Y-140954819D02*
X115607142Y-141002438D01*
X115607142Y-141002438D02*
X115702380Y-141097676D01*
X115702380Y-141097676D02*
X115749999Y-141288152D01*
X115749999Y-141288152D02*
X115749999Y-141621485D01*
X115749999Y-141621485D02*
X115702380Y-141811961D01*
X115702380Y-141811961D02*
X115607142Y-141907200D01*
X115607142Y-141907200D02*
X115511904Y-141954819D01*
X115511904Y-141954819D02*
X115321428Y-141954819D01*
X115321428Y-141954819D02*
X115226190Y-141907200D01*
X115226190Y-141907200D02*
X115130952Y-141811961D01*
X115130952Y-141811961D02*
X115083333Y-141621485D01*
X115083333Y-141621485D02*
X115083333Y-141288152D01*
X115083333Y-141288152D02*
X115130952Y-141097676D01*
X115130952Y-141097676D02*
X115226190Y-141002438D01*
X115226190Y-141002438D02*
X115321428Y-140954819D01*
X116654761Y-141954819D02*
X116178571Y-141954819D01*
X116178571Y-141954819D02*
X116178571Y-140954819D01*
X116988095Y-141431009D02*
X117321428Y-141431009D01*
X117464285Y-141954819D02*
X116988095Y-141954819D01*
X116988095Y-141954819D02*
X116988095Y-140954819D01*
X116988095Y-140954819D02*
X117464285Y-140954819D01*
X117892857Y-141954819D02*
X117892857Y-140954819D01*
X117892857Y-140954819D02*
X118130952Y-140954819D01*
X118130952Y-140954819D02*
X118273809Y-141002438D01*
X118273809Y-141002438D02*
X118369047Y-141097676D01*
X118369047Y-141097676D02*
X118416666Y-141192914D01*
X118416666Y-141192914D02*
X118464285Y-141383390D01*
X118464285Y-141383390D02*
X118464285Y-141526247D01*
X118464285Y-141526247D02*
X118416666Y-141716723D01*
X118416666Y-141716723D02*
X118369047Y-141811961D01*
X118369047Y-141811961D02*
X118273809Y-141907200D01*
X118273809Y-141907200D02*
X118130952Y-141954819D01*
X118130952Y-141954819D02*
X117892857Y-141954819D01*
X119654762Y-141954819D02*
X119654762Y-140954819D01*
X119654762Y-140954819D02*
X120035714Y-140954819D01*
X120035714Y-140954819D02*
X120130952Y-141002438D01*
X120130952Y-141002438D02*
X120178571Y-141050057D01*
X120178571Y-141050057D02*
X120226190Y-141145295D01*
X120226190Y-141145295D02*
X120226190Y-141288152D01*
X120226190Y-141288152D02*
X120178571Y-141383390D01*
X120178571Y-141383390D02*
X120130952Y-141431009D01*
X120130952Y-141431009D02*
X120035714Y-141478628D01*
X120035714Y-141478628D02*
X119654762Y-141478628D01*
X121083333Y-141954819D02*
X121083333Y-141431009D01*
X121083333Y-141431009D02*
X121035714Y-141335771D01*
X121035714Y-141335771D02*
X120940476Y-141288152D01*
X120940476Y-141288152D02*
X120750000Y-141288152D01*
X120750000Y-141288152D02*
X120654762Y-141335771D01*
X121083333Y-141907200D02*
X120988095Y-141954819D01*
X120988095Y-141954819D02*
X120750000Y-141954819D01*
X120750000Y-141954819D02*
X120654762Y-141907200D01*
X120654762Y-141907200D02*
X120607143Y-141811961D01*
X120607143Y-141811961D02*
X120607143Y-141716723D01*
X120607143Y-141716723D02*
X120654762Y-141621485D01*
X120654762Y-141621485D02*
X120750000Y-141573866D01*
X120750000Y-141573866D02*
X120988095Y-141573866D01*
X120988095Y-141573866D02*
X121083333Y-141526247D01*
X121559524Y-141288152D02*
X121559524Y-141954819D01*
X121559524Y-141383390D02*
X121607143Y-141335771D01*
X121607143Y-141335771D02*
X121702381Y-141288152D01*
X121702381Y-141288152D02*
X121845238Y-141288152D01*
X121845238Y-141288152D02*
X121940476Y-141335771D01*
X121940476Y-141335771D02*
X121988095Y-141431009D01*
X121988095Y-141431009D02*
X121988095Y-141954819D01*
X122845238Y-141907200D02*
X122750000Y-141954819D01*
X122750000Y-141954819D02*
X122559524Y-141954819D01*
X122559524Y-141954819D02*
X122464286Y-141907200D01*
X122464286Y-141907200D02*
X122416667Y-141811961D01*
X122416667Y-141811961D02*
X122416667Y-141431009D01*
X122416667Y-141431009D02*
X122464286Y-141335771D01*
X122464286Y-141335771D02*
X122559524Y-141288152D01*
X122559524Y-141288152D02*
X122750000Y-141288152D01*
X122750000Y-141288152D02*
X122845238Y-141335771D01*
X122845238Y-141335771D02*
X122892857Y-141431009D01*
X122892857Y-141431009D02*
X122892857Y-141526247D01*
X122892857Y-141526247D02*
X122416667Y-141621485D01*
X123464286Y-141954819D02*
X123369048Y-141907200D01*
X123369048Y-141907200D02*
X123321429Y-141811961D01*
X123321429Y-141811961D02*
X123321429Y-140954819D01*
X138928095Y-62154819D02*
X138928095Y-61154819D01*
X139499523Y-62154819D02*
X139070952Y-61583390D01*
X139499523Y-61154819D02*
X138928095Y-61726247D01*
X125190476Y-58033200D02*
X125333333Y-58080819D01*
X125333333Y-58080819D02*
X125571428Y-58080819D01*
X125571428Y-58080819D02*
X125666666Y-58033200D01*
X125666666Y-58033200D02*
X125714285Y-57985580D01*
X125714285Y-57985580D02*
X125761904Y-57890342D01*
X125761904Y-57890342D02*
X125761904Y-57795104D01*
X125761904Y-57795104D02*
X125714285Y-57699866D01*
X125714285Y-57699866D02*
X125666666Y-57652247D01*
X125666666Y-57652247D02*
X125571428Y-57604628D01*
X125571428Y-57604628D02*
X125380952Y-57557009D01*
X125380952Y-57557009D02*
X125285714Y-57509390D01*
X125285714Y-57509390D02*
X125238095Y-57461771D01*
X125238095Y-57461771D02*
X125190476Y-57366533D01*
X125190476Y-57366533D02*
X125190476Y-57271295D01*
X125190476Y-57271295D02*
X125238095Y-57176057D01*
X125238095Y-57176057D02*
X125285714Y-57128438D01*
X125285714Y-57128438D02*
X125380952Y-57080819D01*
X125380952Y-57080819D02*
X125619047Y-57080819D01*
X125619047Y-57080819D02*
X125761904Y-57128438D01*
X126095238Y-57080819D02*
X126333333Y-58080819D01*
X126333333Y-58080819D02*
X126523809Y-57366533D01*
X126523809Y-57366533D02*
X126714285Y-58080819D01*
X126714285Y-58080819D02*
X126952381Y-57080819D01*
X127857142Y-58080819D02*
X127285714Y-58080819D01*
X127571428Y-58080819D02*
X127571428Y-57080819D01*
X127571428Y-57080819D02*
X127476190Y-57223676D01*
X127476190Y-57223676D02*
X127380952Y-57318914D01*
X127380952Y-57318914D02*
X127285714Y-57366533D01*
X128714285Y-57414152D02*
X128714285Y-58080819D01*
X128476190Y-57033200D02*
X128238095Y-57747485D01*
X128238095Y-57747485D02*
X128857142Y-57747485D01*
X125110476Y-97033200D02*
X125253333Y-97080819D01*
X125253333Y-97080819D02*
X125491428Y-97080819D01*
X125491428Y-97080819D02*
X125586666Y-97033200D01*
X125586666Y-97033200D02*
X125634285Y-96985580D01*
X125634285Y-96985580D02*
X125681904Y-96890342D01*
X125681904Y-96890342D02*
X125681904Y-96795104D01*
X125681904Y-96795104D02*
X125634285Y-96699866D01*
X125634285Y-96699866D02*
X125586666Y-96652247D01*
X125586666Y-96652247D02*
X125491428Y-96604628D01*
X125491428Y-96604628D02*
X125300952Y-96557009D01*
X125300952Y-96557009D02*
X125205714Y-96509390D01*
X125205714Y-96509390D02*
X125158095Y-96461771D01*
X125158095Y-96461771D02*
X125110476Y-96366533D01*
X125110476Y-96366533D02*
X125110476Y-96271295D01*
X125110476Y-96271295D02*
X125158095Y-96176057D01*
X125158095Y-96176057D02*
X125205714Y-96128438D01*
X125205714Y-96128438D02*
X125300952Y-96080819D01*
X125300952Y-96080819D02*
X125539047Y-96080819D01*
X125539047Y-96080819D02*
X125681904Y-96128438D01*
X126015238Y-96080819D02*
X126253333Y-97080819D01*
X126253333Y-97080819D02*
X126443809Y-96366533D01*
X126443809Y-96366533D02*
X126634285Y-97080819D01*
X126634285Y-97080819D02*
X126872381Y-96080819D01*
X127777142Y-97080819D02*
X127205714Y-97080819D01*
X127491428Y-97080819D02*
X127491428Y-96080819D01*
X127491428Y-96080819D02*
X127396190Y-96223676D01*
X127396190Y-96223676D02*
X127300952Y-96318914D01*
X127300952Y-96318914D02*
X127205714Y-96366533D01*
X128634285Y-96080819D02*
X128443809Y-96080819D01*
X128443809Y-96080819D02*
X128348571Y-96128438D01*
X128348571Y-96128438D02*
X128300952Y-96176057D01*
X128300952Y-96176057D02*
X128205714Y-96318914D01*
X128205714Y-96318914D02*
X128158095Y-96509390D01*
X128158095Y-96509390D02*
X128158095Y-96890342D01*
X128158095Y-96890342D02*
X128205714Y-96985580D01*
X128205714Y-96985580D02*
X128253333Y-97033200D01*
X128253333Y-97033200D02*
X128348571Y-97080819D01*
X128348571Y-97080819D02*
X128539047Y-97080819D01*
X128539047Y-97080819D02*
X128634285Y-97033200D01*
X128634285Y-97033200D02*
X128681904Y-96985580D01*
X128681904Y-96985580D02*
X128729523Y-96890342D01*
X128729523Y-96890342D02*
X128729523Y-96652247D01*
X128729523Y-96652247D02*
X128681904Y-96557009D01*
X128681904Y-96557009D02*
X128634285Y-96509390D01*
X128634285Y-96509390D02*
X128539047Y-96461771D01*
X128539047Y-96461771D02*
X128348571Y-96461771D01*
X128348571Y-96461771D02*
X128253333Y-96509390D01*
X128253333Y-96509390D02*
X128205714Y-96557009D01*
X128205714Y-96557009D02*
X128158095Y-96652247D01*
X138928095Y-59504819D02*
X138928095Y-58504819D01*
X139499523Y-59504819D02*
X139070952Y-58933390D01*
X139499523Y-58504819D02*
X138928095Y-59076247D01*
X105690476Y-116533200D02*
X105833333Y-116580819D01*
X105833333Y-116580819D02*
X106071428Y-116580819D01*
X106071428Y-116580819D02*
X106166666Y-116533200D01*
X106166666Y-116533200D02*
X106214285Y-116485580D01*
X106214285Y-116485580D02*
X106261904Y-116390342D01*
X106261904Y-116390342D02*
X106261904Y-116295104D01*
X106261904Y-116295104D02*
X106214285Y-116199866D01*
X106214285Y-116199866D02*
X106166666Y-116152247D01*
X106166666Y-116152247D02*
X106071428Y-116104628D01*
X106071428Y-116104628D02*
X105880952Y-116057009D01*
X105880952Y-116057009D02*
X105785714Y-116009390D01*
X105785714Y-116009390D02*
X105738095Y-115961771D01*
X105738095Y-115961771D02*
X105690476Y-115866533D01*
X105690476Y-115866533D02*
X105690476Y-115771295D01*
X105690476Y-115771295D02*
X105738095Y-115676057D01*
X105738095Y-115676057D02*
X105785714Y-115628438D01*
X105785714Y-115628438D02*
X105880952Y-115580819D01*
X105880952Y-115580819D02*
X106119047Y-115580819D01*
X106119047Y-115580819D02*
X106261904Y-115628438D01*
X106595238Y-115580819D02*
X106833333Y-116580819D01*
X106833333Y-116580819D02*
X107023809Y-115866533D01*
X107023809Y-115866533D02*
X107214285Y-116580819D01*
X107214285Y-116580819D02*
X107452381Y-115580819D01*
X107785714Y-115676057D02*
X107833333Y-115628438D01*
X107833333Y-115628438D02*
X107928571Y-115580819D01*
X107928571Y-115580819D02*
X108166666Y-115580819D01*
X108166666Y-115580819D02*
X108261904Y-115628438D01*
X108261904Y-115628438D02*
X108309523Y-115676057D01*
X108309523Y-115676057D02*
X108357142Y-115771295D01*
X108357142Y-115771295D02*
X108357142Y-115866533D01*
X108357142Y-115866533D02*
X108309523Y-116009390D01*
X108309523Y-116009390D02*
X107738095Y-116580819D01*
X107738095Y-116580819D02*
X108357142Y-116580819D01*
X109214285Y-115580819D02*
X109023809Y-115580819D01*
X109023809Y-115580819D02*
X108928571Y-115628438D01*
X108928571Y-115628438D02*
X108880952Y-115676057D01*
X108880952Y-115676057D02*
X108785714Y-115818914D01*
X108785714Y-115818914D02*
X108738095Y-116009390D01*
X108738095Y-116009390D02*
X108738095Y-116390342D01*
X108738095Y-116390342D02*
X108785714Y-116485580D01*
X108785714Y-116485580D02*
X108833333Y-116533200D01*
X108833333Y-116533200D02*
X108928571Y-116580819D01*
X108928571Y-116580819D02*
X109119047Y-116580819D01*
X109119047Y-116580819D02*
X109214285Y-116533200D01*
X109214285Y-116533200D02*
X109261904Y-116485580D01*
X109261904Y-116485580D02*
X109309523Y-116390342D01*
X109309523Y-116390342D02*
X109309523Y-116152247D01*
X109309523Y-116152247D02*
X109261904Y-116057009D01*
X109261904Y-116057009D02*
X109214285Y-116009390D01*
X109214285Y-116009390D02*
X109119047Y-115961771D01*
X109119047Y-115961771D02*
X108928571Y-115961771D01*
X108928571Y-115961771D02*
X108833333Y-116009390D01*
X108833333Y-116009390D02*
X108785714Y-116057009D01*
X108785714Y-116057009D02*
X108738095Y-116152247D01*
X86190476Y-58033200D02*
X86333333Y-58080819D01*
X86333333Y-58080819D02*
X86571428Y-58080819D01*
X86571428Y-58080819D02*
X86666666Y-58033200D01*
X86666666Y-58033200D02*
X86714285Y-57985580D01*
X86714285Y-57985580D02*
X86761904Y-57890342D01*
X86761904Y-57890342D02*
X86761904Y-57795104D01*
X86761904Y-57795104D02*
X86714285Y-57699866D01*
X86714285Y-57699866D02*
X86666666Y-57652247D01*
X86666666Y-57652247D02*
X86571428Y-57604628D01*
X86571428Y-57604628D02*
X86380952Y-57557009D01*
X86380952Y-57557009D02*
X86285714Y-57509390D01*
X86285714Y-57509390D02*
X86238095Y-57461771D01*
X86238095Y-57461771D02*
X86190476Y-57366533D01*
X86190476Y-57366533D02*
X86190476Y-57271295D01*
X86190476Y-57271295D02*
X86238095Y-57176057D01*
X86238095Y-57176057D02*
X86285714Y-57128438D01*
X86285714Y-57128438D02*
X86380952Y-57080819D01*
X86380952Y-57080819D02*
X86619047Y-57080819D01*
X86619047Y-57080819D02*
X86761904Y-57128438D01*
X87095238Y-57080819D02*
X87333333Y-58080819D01*
X87333333Y-58080819D02*
X87523809Y-57366533D01*
X87523809Y-57366533D02*
X87714285Y-58080819D01*
X87714285Y-58080819D02*
X87952381Y-57080819D01*
X88285714Y-57176057D02*
X88333333Y-57128438D01*
X88333333Y-57128438D02*
X88428571Y-57080819D01*
X88428571Y-57080819D02*
X88666666Y-57080819D01*
X88666666Y-57080819D02*
X88761904Y-57128438D01*
X88761904Y-57128438D02*
X88809523Y-57176057D01*
X88809523Y-57176057D02*
X88857142Y-57271295D01*
X88857142Y-57271295D02*
X88857142Y-57366533D01*
X88857142Y-57366533D02*
X88809523Y-57509390D01*
X88809523Y-57509390D02*
X88238095Y-58080819D01*
X88238095Y-58080819D02*
X88857142Y-58080819D01*
X89238095Y-57176057D02*
X89285714Y-57128438D01*
X89285714Y-57128438D02*
X89380952Y-57080819D01*
X89380952Y-57080819D02*
X89619047Y-57080819D01*
X89619047Y-57080819D02*
X89714285Y-57128438D01*
X89714285Y-57128438D02*
X89761904Y-57176057D01*
X89761904Y-57176057D02*
X89809523Y-57271295D01*
X89809523Y-57271295D02*
X89809523Y-57366533D01*
X89809523Y-57366533D02*
X89761904Y-57509390D01*
X89761904Y-57509390D02*
X89190476Y-58080819D01*
X89190476Y-58080819D02*
X89809523Y-58080819D01*
X138928095Y-73704819D02*
X138928095Y-72704819D01*
X139499523Y-73704819D02*
X139070952Y-73133390D01*
X139499523Y-72704819D02*
X138928095Y-73276247D01*
X86190476Y-116533200D02*
X86333333Y-116580819D01*
X86333333Y-116580819D02*
X86571428Y-116580819D01*
X86571428Y-116580819D02*
X86666666Y-116533200D01*
X86666666Y-116533200D02*
X86714285Y-116485580D01*
X86714285Y-116485580D02*
X86761904Y-116390342D01*
X86761904Y-116390342D02*
X86761904Y-116295104D01*
X86761904Y-116295104D02*
X86714285Y-116199866D01*
X86714285Y-116199866D02*
X86666666Y-116152247D01*
X86666666Y-116152247D02*
X86571428Y-116104628D01*
X86571428Y-116104628D02*
X86380952Y-116057009D01*
X86380952Y-116057009D02*
X86285714Y-116009390D01*
X86285714Y-116009390D02*
X86238095Y-115961771D01*
X86238095Y-115961771D02*
X86190476Y-115866533D01*
X86190476Y-115866533D02*
X86190476Y-115771295D01*
X86190476Y-115771295D02*
X86238095Y-115676057D01*
X86238095Y-115676057D02*
X86285714Y-115628438D01*
X86285714Y-115628438D02*
X86380952Y-115580819D01*
X86380952Y-115580819D02*
X86619047Y-115580819D01*
X86619047Y-115580819D02*
X86761904Y-115628438D01*
X87095238Y-115580819D02*
X87333333Y-116580819D01*
X87333333Y-116580819D02*
X87523809Y-115866533D01*
X87523809Y-115866533D02*
X87714285Y-116580819D01*
X87714285Y-116580819D02*
X87952381Y-115580819D01*
X88857142Y-116580819D02*
X88285714Y-116580819D01*
X88571428Y-116580819D02*
X88571428Y-115580819D01*
X88571428Y-115580819D02*
X88476190Y-115723676D01*
X88476190Y-115723676D02*
X88380952Y-115818914D01*
X88380952Y-115818914D02*
X88285714Y-115866533D01*
X89333333Y-116580819D02*
X89523809Y-116580819D01*
X89523809Y-116580819D02*
X89619047Y-116533200D01*
X89619047Y-116533200D02*
X89666666Y-116485580D01*
X89666666Y-116485580D02*
X89761904Y-116342723D01*
X89761904Y-116342723D02*
X89809523Y-116152247D01*
X89809523Y-116152247D02*
X89809523Y-115771295D01*
X89809523Y-115771295D02*
X89761904Y-115676057D01*
X89761904Y-115676057D02*
X89714285Y-115628438D01*
X89714285Y-115628438D02*
X89619047Y-115580819D01*
X89619047Y-115580819D02*
X89428571Y-115580819D01*
X89428571Y-115580819D02*
X89333333Y-115628438D01*
X89333333Y-115628438D02*
X89285714Y-115676057D01*
X89285714Y-115676057D02*
X89238095Y-115771295D01*
X89238095Y-115771295D02*
X89238095Y-116009390D01*
X89238095Y-116009390D02*
X89285714Y-116104628D01*
X89285714Y-116104628D02*
X89333333Y-116152247D01*
X89333333Y-116152247D02*
X89428571Y-116199866D01*
X89428571Y-116199866D02*
X89619047Y-116199866D01*
X89619047Y-116199866D02*
X89714285Y-116152247D01*
X89714285Y-116152247D02*
X89761904Y-116104628D01*
X89761904Y-116104628D02*
X89809523Y-116009390D01*
X138928095Y-64904819D02*
X138928095Y-63904819D01*
X139499523Y-64904819D02*
X139070952Y-64333390D01*
X139499523Y-63904819D02*
X138928095Y-64476247D01*
X138928095Y-67654819D02*
X138928095Y-66654819D01*
X139499523Y-67654819D02*
X139070952Y-67083390D01*
X139499523Y-66654819D02*
X138928095Y-67226247D01*
X138928095Y-95004819D02*
X138928095Y-94004819D01*
X139499523Y-95004819D02*
X139070952Y-94433390D01*
X139499523Y-94004819D02*
X138928095Y-94576247D01*
X86190476Y-77533200D02*
X86333333Y-77580819D01*
X86333333Y-77580819D02*
X86571428Y-77580819D01*
X86571428Y-77580819D02*
X86666666Y-77533200D01*
X86666666Y-77533200D02*
X86714285Y-77485580D01*
X86714285Y-77485580D02*
X86761904Y-77390342D01*
X86761904Y-77390342D02*
X86761904Y-77295104D01*
X86761904Y-77295104D02*
X86714285Y-77199866D01*
X86714285Y-77199866D02*
X86666666Y-77152247D01*
X86666666Y-77152247D02*
X86571428Y-77104628D01*
X86571428Y-77104628D02*
X86380952Y-77057009D01*
X86380952Y-77057009D02*
X86285714Y-77009390D01*
X86285714Y-77009390D02*
X86238095Y-76961771D01*
X86238095Y-76961771D02*
X86190476Y-76866533D01*
X86190476Y-76866533D02*
X86190476Y-76771295D01*
X86190476Y-76771295D02*
X86238095Y-76676057D01*
X86238095Y-76676057D02*
X86285714Y-76628438D01*
X86285714Y-76628438D02*
X86380952Y-76580819D01*
X86380952Y-76580819D02*
X86619047Y-76580819D01*
X86619047Y-76580819D02*
X86761904Y-76628438D01*
X87095238Y-76580819D02*
X87333333Y-77580819D01*
X87333333Y-77580819D02*
X87523809Y-76866533D01*
X87523809Y-76866533D02*
X87714285Y-77580819D01*
X87714285Y-77580819D02*
X87952381Y-76580819D01*
X88285714Y-76676057D02*
X88333333Y-76628438D01*
X88333333Y-76628438D02*
X88428571Y-76580819D01*
X88428571Y-76580819D02*
X88666666Y-76580819D01*
X88666666Y-76580819D02*
X88761904Y-76628438D01*
X88761904Y-76628438D02*
X88809523Y-76676057D01*
X88809523Y-76676057D02*
X88857142Y-76771295D01*
X88857142Y-76771295D02*
X88857142Y-76866533D01*
X88857142Y-76866533D02*
X88809523Y-77009390D01*
X88809523Y-77009390D02*
X88238095Y-77580819D01*
X88238095Y-77580819D02*
X88857142Y-77580819D01*
X89809523Y-77580819D02*
X89238095Y-77580819D01*
X89523809Y-77580819D02*
X89523809Y-76580819D01*
X89523809Y-76580819D02*
X89428571Y-76723676D01*
X89428571Y-76723676D02*
X89333333Y-76818914D01*
X89333333Y-76818914D02*
X89238095Y-76866533D01*
X138928095Y-87904819D02*
X138928095Y-86904819D01*
X139499523Y-87904819D02*
X139070952Y-87333390D01*
X139499523Y-86904819D02*
X138928095Y-87476247D01*
X105690476Y-58033200D02*
X105833333Y-58080819D01*
X105833333Y-58080819D02*
X106071428Y-58080819D01*
X106071428Y-58080819D02*
X106166666Y-58033200D01*
X106166666Y-58033200D02*
X106214285Y-57985580D01*
X106214285Y-57985580D02*
X106261904Y-57890342D01*
X106261904Y-57890342D02*
X106261904Y-57795104D01*
X106261904Y-57795104D02*
X106214285Y-57699866D01*
X106214285Y-57699866D02*
X106166666Y-57652247D01*
X106166666Y-57652247D02*
X106071428Y-57604628D01*
X106071428Y-57604628D02*
X105880952Y-57557009D01*
X105880952Y-57557009D02*
X105785714Y-57509390D01*
X105785714Y-57509390D02*
X105738095Y-57461771D01*
X105738095Y-57461771D02*
X105690476Y-57366533D01*
X105690476Y-57366533D02*
X105690476Y-57271295D01*
X105690476Y-57271295D02*
X105738095Y-57176057D01*
X105738095Y-57176057D02*
X105785714Y-57128438D01*
X105785714Y-57128438D02*
X105880952Y-57080819D01*
X105880952Y-57080819D02*
X106119047Y-57080819D01*
X106119047Y-57080819D02*
X106261904Y-57128438D01*
X106595238Y-57080819D02*
X106833333Y-58080819D01*
X106833333Y-58080819D02*
X107023809Y-57366533D01*
X107023809Y-57366533D02*
X107214285Y-58080819D01*
X107214285Y-58080819D02*
X107452381Y-57080819D01*
X107785714Y-57176057D02*
X107833333Y-57128438D01*
X107833333Y-57128438D02*
X107928571Y-57080819D01*
X107928571Y-57080819D02*
X108166666Y-57080819D01*
X108166666Y-57080819D02*
X108261904Y-57128438D01*
X108261904Y-57128438D02*
X108309523Y-57176057D01*
X108309523Y-57176057D02*
X108357142Y-57271295D01*
X108357142Y-57271295D02*
X108357142Y-57366533D01*
X108357142Y-57366533D02*
X108309523Y-57509390D01*
X108309523Y-57509390D02*
X107738095Y-58080819D01*
X107738095Y-58080819D02*
X108357142Y-58080819D01*
X108690476Y-57080819D02*
X109309523Y-57080819D01*
X109309523Y-57080819D02*
X108976190Y-57461771D01*
X108976190Y-57461771D02*
X109119047Y-57461771D01*
X109119047Y-57461771D02*
X109214285Y-57509390D01*
X109214285Y-57509390D02*
X109261904Y-57557009D01*
X109261904Y-57557009D02*
X109309523Y-57652247D01*
X109309523Y-57652247D02*
X109309523Y-57890342D01*
X109309523Y-57890342D02*
X109261904Y-57985580D01*
X109261904Y-57985580D02*
X109214285Y-58033200D01*
X109214285Y-58033200D02*
X109119047Y-58080819D01*
X109119047Y-58080819D02*
X108833333Y-58080819D01*
X108833333Y-58080819D02*
X108738095Y-58033200D01*
X108738095Y-58033200D02*
X108690476Y-57985580D01*
X138928095Y-80804819D02*
X138928095Y-79804819D01*
X139499523Y-80804819D02*
X139070952Y-80233390D01*
X139499523Y-79804819D02*
X138928095Y-80376247D01*
X142666666Y-139304819D02*
X142333333Y-138828628D01*
X142095238Y-139304819D02*
X142095238Y-138304819D01*
X142095238Y-138304819D02*
X142476190Y-138304819D01*
X142476190Y-138304819D02*
X142571428Y-138352438D01*
X142571428Y-138352438D02*
X142619047Y-138400057D01*
X142619047Y-138400057D02*
X142666666Y-138495295D01*
X142666666Y-138495295D02*
X142666666Y-138638152D01*
X142666666Y-138638152D02*
X142619047Y-138733390D01*
X142619047Y-138733390D02*
X142571428Y-138781009D01*
X142571428Y-138781009D02*
X142476190Y-138828628D01*
X142476190Y-138828628D02*
X142095238Y-138828628D01*
X143095238Y-138781009D02*
X143428571Y-138781009D01*
X143571428Y-139304819D02*
X143095238Y-139304819D01*
X143095238Y-139304819D02*
X143095238Y-138304819D01*
X143095238Y-138304819D02*
X143571428Y-138304819D01*
X144333333Y-138781009D02*
X144000000Y-138781009D01*
X144000000Y-139304819D02*
X144000000Y-138304819D01*
X144000000Y-138304819D02*
X144476190Y-138304819D01*
X145000000Y-138304819D02*
X145000000Y-138542914D01*
X144761905Y-138447676D02*
X145000000Y-138542914D01*
X145000000Y-138542914D02*
X145238095Y-138447676D01*
X144857143Y-138733390D02*
X145000000Y-138542914D01*
X145000000Y-138542914D02*
X145142857Y-138733390D01*
X145761905Y-138304819D02*
X145761905Y-138542914D01*
X145523810Y-138447676D02*
X145761905Y-138542914D01*
X145761905Y-138542914D02*
X146000000Y-138447676D01*
X145619048Y-138733390D02*
X145761905Y-138542914D01*
X145761905Y-138542914D02*
X145904762Y-138733390D01*
X139666666Y-106304819D02*
X139333333Y-105828628D01*
X139095238Y-106304819D02*
X139095238Y-105304819D01*
X139095238Y-105304819D02*
X139476190Y-105304819D01*
X139476190Y-105304819D02*
X139571428Y-105352438D01*
X139571428Y-105352438D02*
X139619047Y-105400057D01*
X139619047Y-105400057D02*
X139666666Y-105495295D01*
X139666666Y-105495295D02*
X139666666Y-105638152D01*
X139666666Y-105638152D02*
X139619047Y-105733390D01*
X139619047Y-105733390D02*
X139571428Y-105781009D01*
X139571428Y-105781009D02*
X139476190Y-105828628D01*
X139476190Y-105828628D02*
X139095238Y-105828628D01*
X140095238Y-105781009D02*
X140428571Y-105781009D01*
X140571428Y-106304819D02*
X140095238Y-106304819D01*
X140095238Y-106304819D02*
X140095238Y-105304819D01*
X140095238Y-105304819D02*
X140571428Y-105304819D01*
X141333333Y-105781009D02*
X141000000Y-105781009D01*
X141000000Y-106304819D02*
X141000000Y-105304819D01*
X141000000Y-105304819D02*
X141476190Y-105304819D01*
X142000000Y-105304819D02*
X142000000Y-105542914D01*
X141761905Y-105447676D02*
X142000000Y-105542914D01*
X142000000Y-105542914D02*
X142238095Y-105447676D01*
X141857143Y-105733390D02*
X142000000Y-105542914D01*
X142000000Y-105542914D02*
X142142857Y-105733390D01*
X142761905Y-105304819D02*
X142761905Y-105542914D01*
X142523810Y-105447676D02*
X142761905Y-105542914D01*
X142761905Y-105542914D02*
X143000000Y-105447676D01*
X142619048Y-105733390D02*
X142761905Y-105542914D01*
X142761905Y-105542914D02*
X142904762Y-105733390D01*
X138928095Y-84354819D02*
X138928095Y-83354819D01*
X139499523Y-84354819D02*
X139070952Y-83783390D01*
X139499523Y-83354819D02*
X138928095Y-83926247D01*
X125110476Y-77533200D02*
X125253333Y-77580819D01*
X125253333Y-77580819D02*
X125491428Y-77580819D01*
X125491428Y-77580819D02*
X125586666Y-77533200D01*
X125586666Y-77533200D02*
X125634285Y-77485580D01*
X125634285Y-77485580D02*
X125681904Y-77390342D01*
X125681904Y-77390342D02*
X125681904Y-77295104D01*
X125681904Y-77295104D02*
X125634285Y-77199866D01*
X125634285Y-77199866D02*
X125586666Y-77152247D01*
X125586666Y-77152247D02*
X125491428Y-77104628D01*
X125491428Y-77104628D02*
X125300952Y-77057009D01*
X125300952Y-77057009D02*
X125205714Y-77009390D01*
X125205714Y-77009390D02*
X125158095Y-76961771D01*
X125158095Y-76961771D02*
X125110476Y-76866533D01*
X125110476Y-76866533D02*
X125110476Y-76771295D01*
X125110476Y-76771295D02*
X125158095Y-76676057D01*
X125158095Y-76676057D02*
X125205714Y-76628438D01*
X125205714Y-76628438D02*
X125300952Y-76580819D01*
X125300952Y-76580819D02*
X125539047Y-76580819D01*
X125539047Y-76580819D02*
X125681904Y-76628438D01*
X126015238Y-76580819D02*
X126253333Y-77580819D01*
X126253333Y-77580819D02*
X126443809Y-76866533D01*
X126443809Y-76866533D02*
X126634285Y-77580819D01*
X126634285Y-77580819D02*
X126872381Y-76580819D01*
X127777142Y-77580819D02*
X127205714Y-77580819D01*
X127491428Y-77580819D02*
X127491428Y-76580819D01*
X127491428Y-76580819D02*
X127396190Y-76723676D01*
X127396190Y-76723676D02*
X127300952Y-76818914D01*
X127300952Y-76818914D02*
X127205714Y-76866533D01*
X128681904Y-76580819D02*
X128205714Y-76580819D01*
X128205714Y-76580819D02*
X128158095Y-77057009D01*
X128158095Y-77057009D02*
X128205714Y-77009390D01*
X128205714Y-77009390D02*
X128300952Y-76961771D01*
X128300952Y-76961771D02*
X128539047Y-76961771D01*
X128539047Y-76961771D02*
X128634285Y-77009390D01*
X128634285Y-77009390D02*
X128681904Y-77057009D01*
X128681904Y-77057009D02*
X128729523Y-77152247D01*
X128729523Y-77152247D02*
X128729523Y-77390342D01*
X128729523Y-77390342D02*
X128681904Y-77485580D01*
X128681904Y-77485580D02*
X128634285Y-77533200D01*
X128634285Y-77533200D02*
X128539047Y-77580819D01*
X128539047Y-77580819D02*
X128300952Y-77580819D01*
X128300952Y-77580819D02*
X128205714Y-77533200D01*
X128205714Y-77533200D02*
X128158095Y-77485580D01*
X105690476Y-77533200D02*
X105833333Y-77580819D01*
X105833333Y-77580819D02*
X106071428Y-77580819D01*
X106071428Y-77580819D02*
X106166666Y-77533200D01*
X106166666Y-77533200D02*
X106214285Y-77485580D01*
X106214285Y-77485580D02*
X106261904Y-77390342D01*
X106261904Y-77390342D02*
X106261904Y-77295104D01*
X106261904Y-77295104D02*
X106214285Y-77199866D01*
X106214285Y-77199866D02*
X106166666Y-77152247D01*
X106166666Y-77152247D02*
X106071428Y-77104628D01*
X106071428Y-77104628D02*
X105880952Y-77057009D01*
X105880952Y-77057009D02*
X105785714Y-77009390D01*
X105785714Y-77009390D02*
X105738095Y-76961771D01*
X105738095Y-76961771D02*
X105690476Y-76866533D01*
X105690476Y-76866533D02*
X105690476Y-76771295D01*
X105690476Y-76771295D02*
X105738095Y-76676057D01*
X105738095Y-76676057D02*
X105785714Y-76628438D01*
X105785714Y-76628438D02*
X105880952Y-76580819D01*
X105880952Y-76580819D02*
X106119047Y-76580819D01*
X106119047Y-76580819D02*
X106261904Y-76628438D01*
X106595238Y-76580819D02*
X106833333Y-77580819D01*
X106833333Y-77580819D02*
X107023809Y-76866533D01*
X107023809Y-76866533D02*
X107214285Y-77580819D01*
X107214285Y-77580819D02*
X107452381Y-76580819D01*
X107785714Y-76676057D02*
X107833333Y-76628438D01*
X107833333Y-76628438D02*
X107928571Y-76580819D01*
X107928571Y-76580819D02*
X108166666Y-76580819D01*
X108166666Y-76580819D02*
X108261904Y-76628438D01*
X108261904Y-76628438D02*
X108309523Y-76676057D01*
X108309523Y-76676057D02*
X108357142Y-76771295D01*
X108357142Y-76771295D02*
X108357142Y-76866533D01*
X108357142Y-76866533D02*
X108309523Y-77009390D01*
X108309523Y-77009390D02*
X107738095Y-77580819D01*
X107738095Y-77580819D02*
X108357142Y-77580819D01*
X109214285Y-76914152D02*
X109214285Y-77580819D01*
X108976190Y-76533200D02*
X108738095Y-77247485D01*
X108738095Y-77247485D02*
X109357142Y-77247485D01*
X138928095Y-77254819D02*
X138928095Y-76254819D01*
X139499523Y-77254819D02*
X139070952Y-76683390D01*
X139499523Y-76254819D02*
X138928095Y-76826247D01*
D11*
X110999757Y-152821427D02*
X110928328Y-152964285D01*
X110928328Y-152964285D02*
X110928328Y-153178570D01*
X110928328Y-153178570D02*
X110999757Y-153392856D01*
X110999757Y-153392856D02*
X111142614Y-153535713D01*
X111142614Y-153535713D02*
X111285471Y-153607142D01*
X111285471Y-153607142D02*
X111571185Y-153678570D01*
X111571185Y-153678570D02*
X111785471Y-153678570D01*
X111785471Y-153678570D02*
X112071185Y-153607142D01*
X112071185Y-153607142D02*
X112214042Y-153535713D01*
X112214042Y-153535713D02*
X112356900Y-153392856D01*
X112356900Y-153392856D02*
X112428328Y-153178570D01*
X112428328Y-153178570D02*
X112428328Y-153035713D01*
X112428328Y-153035713D02*
X112356900Y-152821427D01*
X112356900Y-152821427D02*
X112285471Y-152749999D01*
X112285471Y-152749999D02*
X111785471Y-152749999D01*
X111785471Y-152749999D02*
X111785471Y-153035713D01*
X110928328Y-151892856D02*
X111285471Y-151892856D01*
X111142614Y-152249999D02*
X111285471Y-151892856D01*
X111285471Y-151892856D02*
X111142614Y-151535713D01*
X111571185Y-152107142D02*
X111285471Y-151892856D01*
X111285471Y-151892856D02*
X111571185Y-151678570D01*
X110928328Y-150749999D02*
X111285471Y-150749999D01*
X111142614Y-151107142D02*
X111285471Y-150749999D01*
X111285471Y-150749999D02*
X111142614Y-150392856D01*
X111571185Y-150964285D02*
X111285471Y-150749999D01*
X111285471Y-150749999D02*
X111571185Y-150535713D01*
X110928328Y-149607142D02*
X111285471Y-149607142D01*
X111142614Y-149964285D02*
X111285471Y-149607142D01*
X111285471Y-149607142D02*
X111142614Y-149249999D01*
X111571185Y-149821428D02*
X111285471Y-149607142D01*
X111285471Y-149607142D02*
X111571185Y-149392856D01*
D12*
X88197666Y-141764970D02*
X88197666Y-142484637D01*
X88197666Y-142484637D02*
X88240000Y-142569303D01*
X88240000Y-142569303D02*
X88282333Y-142611637D01*
X88282333Y-142611637D02*
X88367000Y-142653970D01*
X88367000Y-142653970D02*
X88536333Y-142653970D01*
X88536333Y-142653970D02*
X88621000Y-142611637D01*
X88621000Y-142611637D02*
X88663333Y-142569303D01*
X88663333Y-142569303D02*
X88705666Y-142484637D01*
X88705666Y-142484637D02*
X88705666Y-141764970D01*
X89594666Y-142653970D02*
X89086666Y-142653970D01*
X89340666Y-142653970D02*
X89340666Y-141764970D01*
X89340666Y-141764970D02*
X89255999Y-141891970D01*
X89255999Y-141891970D02*
X89171333Y-141976637D01*
X89171333Y-141976637D02*
X89086666Y-142018970D01*
D10*
X93636904Y-145880785D02*
X93494047Y-145833165D01*
X93494047Y-145833165D02*
X93255952Y-145833165D01*
X93255952Y-145833165D02*
X93160714Y-145880785D01*
X93160714Y-145880785D02*
X93113095Y-145928404D01*
X93113095Y-145928404D02*
X93065476Y-146023642D01*
X93065476Y-146023642D02*
X93065476Y-146118880D01*
X93065476Y-146118880D02*
X93113095Y-146214118D01*
X93113095Y-146214118D02*
X93160714Y-146261737D01*
X93160714Y-146261737D02*
X93255952Y-146309356D01*
X93255952Y-146309356D02*
X93446428Y-146356975D01*
X93446428Y-146356975D02*
X93541666Y-146404594D01*
X93541666Y-146404594D02*
X93589285Y-146452213D01*
X93589285Y-146452213D02*
X93636904Y-146547451D01*
X93636904Y-146547451D02*
X93636904Y-146642689D01*
X93636904Y-146642689D02*
X93589285Y-146737927D01*
X93589285Y-146737927D02*
X93541666Y-146785546D01*
X93541666Y-146785546D02*
X93446428Y-146833165D01*
X93446428Y-146833165D02*
X93208333Y-146833165D01*
X93208333Y-146833165D02*
X93065476Y-146785546D01*
X92255952Y-145880785D02*
X92351190Y-145833165D01*
X92351190Y-145833165D02*
X92541666Y-145833165D01*
X92541666Y-145833165D02*
X92636904Y-145880785D01*
X92636904Y-145880785D02*
X92684523Y-145976023D01*
X92684523Y-145976023D02*
X92684523Y-146356975D01*
X92684523Y-146356975D02*
X92636904Y-146452213D01*
X92636904Y-146452213D02*
X92541666Y-146499832D01*
X92541666Y-146499832D02*
X92351190Y-146499832D01*
X92351190Y-146499832D02*
X92255952Y-146452213D01*
X92255952Y-146452213D02*
X92208333Y-146356975D01*
X92208333Y-146356975D02*
X92208333Y-146261737D01*
X92208333Y-146261737D02*
X92684523Y-146166499D01*
X91398809Y-145880785D02*
X91494047Y-145833165D01*
X91494047Y-145833165D02*
X91684523Y-145833165D01*
X91684523Y-145833165D02*
X91779761Y-145880785D01*
X91779761Y-145880785D02*
X91827380Y-145976023D01*
X91827380Y-145976023D02*
X91827380Y-146356975D01*
X91827380Y-146356975D02*
X91779761Y-146452213D01*
X91779761Y-146452213D02*
X91684523Y-146499832D01*
X91684523Y-146499832D02*
X91494047Y-146499832D01*
X91494047Y-146499832D02*
X91398809Y-146452213D01*
X91398809Y-146452213D02*
X91351190Y-146356975D01*
X91351190Y-146356975D02*
X91351190Y-146261737D01*
X91351190Y-146261737D02*
X91827380Y-146166499D01*
X90541666Y-145880785D02*
X90636904Y-145833165D01*
X90636904Y-145833165D02*
X90827380Y-145833165D01*
X90827380Y-145833165D02*
X90922618Y-145880785D01*
X90922618Y-145880785D02*
X90970237Y-145976023D01*
X90970237Y-145976023D02*
X90970237Y-146356975D01*
X90970237Y-146356975D02*
X90922618Y-146452213D01*
X90922618Y-146452213D02*
X90827380Y-146499832D01*
X90827380Y-146499832D02*
X90636904Y-146499832D01*
X90636904Y-146499832D02*
X90541666Y-146452213D01*
X90541666Y-146452213D02*
X90494047Y-146356975D01*
X90494047Y-146356975D02*
X90494047Y-146261737D01*
X90494047Y-146261737D02*
X90970237Y-146166499D01*
X89636904Y-145833165D02*
X89636904Y-146833165D01*
X89636904Y-145880785D02*
X89732142Y-145833165D01*
X89732142Y-145833165D02*
X89922618Y-145833165D01*
X89922618Y-145833165D02*
X90017856Y-145880785D01*
X90017856Y-145880785D02*
X90065475Y-145928404D01*
X90065475Y-145928404D02*
X90113094Y-146023642D01*
X90113094Y-146023642D02*
X90113094Y-146309356D01*
X90113094Y-146309356D02*
X90065475Y-146404594D01*
X90065475Y-146404594D02*
X90017856Y-146452213D01*
X90017856Y-146452213D02*
X89922618Y-146499832D01*
X89922618Y-146499832D02*
X89732142Y-146499832D01*
X89732142Y-146499832D02*
X89636904Y-146452213D01*
X88446427Y-145880785D02*
X88303570Y-145833165D01*
X88303570Y-145833165D02*
X88065475Y-145833165D01*
X88065475Y-145833165D02*
X87970237Y-145880785D01*
X87970237Y-145880785D02*
X87922618Y-145928404D01*
X87922618Y-145928404D02*
X87874999Y-146023642D01*
X87874999Y-146023642D02*
X87874999Y-146118880D01*
X87874999Y-146118880D02*
X87922618Y-146214118D01*
X87922618Y-146214118D02*
X87970237Y-146261737D01*
X87970237Y-146261737D02*
X88065475Y-146309356D01*
X88065475Y-146309356D02*
X88255951Y-146356975D01*
X88255951Y-146356975D02*
X88351189Y-146404594D01*
X88351189Y-146404594D02*
X88398808Y-146452213D01*
X88398808Y-146452213D02*
X88446427Y-146547451D01*
X88446427Y-146547451D02*
X88446427Y-146642689D01*
X88446427Y-146642689D02*
X88398808Y-146737927D01*
X88398808Y-146737927D02*
X88351189Y-146785546D01*
X88351189Y-146785546D02*
X88255951Y-146833165D01*
X88255951Y-146833165D02*
X88017856Y-146833165D01*
X88017856Y-146833165D02*
X87874999Y-146785546D01*
X87589284Y-146499832D02*
X87208332Y-146499832D01*
X87446427Y-146833165D02*
X87446427Y-145976023D01*
X87446427Y-145976023D02*
X87398808Y-145880785D01*
X87398808Y-145880785D02*
X87303570Y-145833165D01*
X87303570Y-145833165D02*
X87208332Y-145833165D01*
X86446427Y-146499832D02*
X86446427Y-145833165D01*
X86874998Y-146499832D02*
X86874998Y-145976023D01*
X86874998Y-145976023D02*
X86827379Y-145880785D01*
X86827379Y-145880785D02*
X86732141Y-145833165D01*
X86732141Y-145833165D02*
X86589284Y-145833165D01*
X86589284Y-145833165D02*
X86494046Y-145880785D01*
X86494046Y-145880785D02*
X86446427Y-145928404D01*
X85541665Y-145833165D02*
X85541665Y-146833165D01*
X85541665Y-145880785D02*
X85636903Y-145833165D01*
X85636903Y-145833165D02*
X85827379Y-145833165D01*
X85827379Y-145833165D02*
X85922617Y-145880785D01*
X85922617Y-145880785D02*
X85970236Y-145928404D01*
X85970236Y-145928404D02*
X86017855Y-146023642D01*
X86017855Y-146023642D02*
X86017855Y-146309356D01*
X86017855Y-146309356D02*
X85970236Y-146404594D01*
X85970236Y-146404594D02*
X85922617Y-146452213D01*
X85922617Y-146452213D02*
X85827379Y-146499832D01*
X85827379Y-146499832D02*
X85636903Y-146499832D01*
X85636903Y-146499832D02*
X85541665Y-146452213D01*
X85065474Y-145833165D02*
X85065474Y-146499832D01*
X85065474Y-146833165D02*
X85113093Y-146785546D01*
X85113093Y-146785546D02*
X85065474Y-146737927D01*
X85065474Y-146737927D02*
X85017855Y-146785546D01*
X85017855Y-146785546D02*
X85065474Y-146833165D01*
X85065474Y-146833165D02*
X85065474Y-146737927D01*
X84446427Y-145833165D02*
X84541665Y-145880785D01*
X84541665Y-145880785D02*
X84589284Y-145928404D01*
X84589284Y-145928404D02*
X84636903Y-146023642D01*
X84636903Y-146023642D02*
X84636903Y-146309356D01*
X84636903Y-146309356D02*
X84589284Y-146404594D01*
X84589284Y-146404594D02*
X84541665Y-146452213D01*
X84541665Y-146452213D02*
X84446427Y-146499832D01*
X84446427Y-146499832D02*
X84303570Y-146499832D01*
X84303570Y-146499832D02*
X84208332Y-146452213D01*
X84208332Y-146452213D02*
X84160713Y-146404594D01*
X84160713Y-146404594D02*
X84113094Y-146309356D01*
X84113094Y-146309356D02*
X84113094Y-146023642D01*
X84113094Y-146023642D02*
X84160713Y-145928404D01*
X84160713Y-145928404D02*
X84208332Y-145880785D01*
X84208332Y-145880785D02*
X84303570Y-145833165D01*
X84303570Y-145833165D02*
X84446427Y-145833165D01*
X93788308Y-148045180D02*
X93121642Y-147045180D01*
X93121642Y-148045180D02*
X93788308Y-147045180D01*
X92740689Y-147045180D02*
X92740689Y-148045180D01*
X92312118Y-147330895D02*
X91835928Y-147330895D01*
X92407356Y-147045180D02*
X92074023Y-148045180D01*
X92074023Y-148045180D02*
X91740690Y-147045180D01*
X91216880Y-148045180D02*
X91026404Y-148045180D01*
X91026404Y-148045180D02*
X90931166Y-147997561D01*
X90931166Y-147997561D02*
X90835928Y-147902323D01*
X90835928Y-147902323D02*
X90788309Y-147711847D01*
X90788309Y-147711847D02*
X90788309Y-147378514D01*
X90788309Y-147378514D02*
X90835928Y-147188038D01*
X90835928Y-147188038D02*
X90931166Y-147092800D01*
X90931166Y-147092800D02*
X91026404Y-147045180D01*
X91026404Y-147045180D02*
X91216880Y-147045180D01*
X91216880Y-147045180D02*
X91312118Y-147092800D01*
X91312118Y-147092800D02*
X91407356Y-147188038D01*
X91407356Y-147188038D02*
X91454975Y-147378514D01*
X91454975Y-147378514D02*
X91454975Y-147711847D01*
X91454975Y-147711847D02*
X91407356Y-147902323D01*
X91407356Y-147902323D02*
X91312118Y-147997561D01*
X91312118Y-147997561D02*
X91216880Y-148045180D01*
%TO.C,D15*%
D13*
X140230000Y-92800000D02*
X140880000Y-92800000D01*
X141480000Y-91680000D02*
X141480000Y-93920000D01*
X141600000Y-91680000D02*
X141600000Y-93920000D01*
X141720000Y-91680000D02*
X141720000Y-93920000D01*
X145770000Y-92800000D02*
X145120000Y-92800000D01*
X140880000Y-91680000D02*
X145120000Y-91680000D01*
X145120000Y-93920000D01*
X140880000Y-93920000D01*
X140880000Y-91680000D01*
%TO.C,SW20*%
X81015000Y-97515000D02*
X94985000Y-97515000D01*
X81015000Y-111485000D02*
X81015000Y-97515000D01*
X94985000Y-97515000D02*
X94985000Y-111485000D01*
X94985000Y-111485000D02*
X81015000Y-111485000D01*
%TO.C,D3*%
X140230000Y-58250000D02*
X140880000Y-58250000D01*
X141480000Y-57130000D02*
X141480000Y-59370000D01*
X141600000Y-57130000D02*
X141600000Y-59370000D01*
X141720000Y-57130000D02*
X141720000Y-59370000D01*
X145770000Y-58250000D02*
X145120000Y-58250000D01*
X140880000Y-57130000D02*
X145120000Y-57130000D01*
X145120000Y-59370000D01*
X140880000Y-59370000D01*
X140880000Y-57130000D01*
%TO.C,SW25*%
X100515000Y-97515000D02*
X114485000Y-97515000D01*
X100515000Y-111485000D02*
X100515000Y-97515000D01*
X114485000Y-97515000D02*
X114485000Y-111485000D01*
X114485000Y-111485000D02*
X100515000Y-111485000D01*
%TO.C,SW4*%
X119370000Y-119900000D02*
X119970000Y-119900000D01*
X119670000Y-120200000D02*
X119370000Y-119900000D01*
X119970000Y-119900000D02*
X119670000Y-120200000D01*
X121070000Y-118100000D02*
X121070000Y-129900000D01*
X125170000Y-118100000D02*
X121070000Y-118100000D01*
X125170000Y-129900000D02*
X121070000Y-129900000D01*
X126670000Y-124000000D02*
X127670000Y-124000000D01*
X127170000Y-123500000D02*
X127170000Y-124500000D01*
X129170000Y-118100000D02*
X133270000Y-118100000D01*
X133270000Y-118100000D02*
X133270000Y-120500000D01*
X133270000Y-122700000D02*
X133270000Y-125300000D01*
X133270000Y-127500000D02*
X133270000Y-129900000D01*
X133270000Y-129900000D02*
X129170000Y-129900000D01*
X130170000Y-124000000D02*
G75*
G02*
X124170000Y-124000000I-3000000J0D01*
G01*
X124170000Y-124000000D02*
G75*
G02*
X130170000Y-124000000I3000000J0D01*
G01*
%TO.C,J1*%
D14*
X100250000Y-135500000D02*
X100250000Y-147500000D01*
X100250000Y-147500000D02*
X138250000Y-147500000D01*
X105250000Y-147500000D02*
X105250000Y-135500000D01*
X134750000Y-147500000D02*
X134750000Y-135500000D01*
X138250000Y-135500000D02*
X100250000Y-135500000D01*
X138250000Y-147500000D02*
X138250000Y-135500000D01*
%TO.C,D5*%
D13*
X140230000Y-63500000D02*
X140880000Y-63500000D01*
X141480000Y-62380000D02*
X141480000Y-64620000D01*
X141600000Y-62380000D02*
X141600000Y-64620000D01*
X141720000Y-62380000D02*
X141720000Y-64620000D01*
X145770000Y-63500000D02*
X145120000Y-63500000D01*
X140880000Y-62380000D02*
X145120000Y-62380000D01*
X145120000Y-64620000D01*
X140880000Y-64620000D01*
X140880000Y-62380000D01*
%TO.C,SW14*%
X120015000Y-58515000D02*
X133985000Y-58515000D01*
X120015000Y-72485000D02*
X120015000Y-58515000D01*
X133985000Y-58515000D02*
X133985000Y-72485000D01*
X133985000Y-72485000D02*
X120015000Y-72485000D01*
%TO.C,SW16*%
X119935000Y-97515000D02*
X133905000Y-97515000D01*
X119935000Y-111485000D02*
X119935000Y-97515000D01*
X133905000Y-97515000D02*
X133905000Y-111485000D01*
X133905000Y-111485000D02*
X119935000Y-111485000D01*
%TO.C,D4*%
X140230000Y-60850000D02*
X140880000Y-60850000D01*
X141480000Y-59730000D02*
X141480000Y-61970000D01*
X141600000Y-59730000D02*
X141600000Y-61970000D01*
X141720000Y-59730000D02*
X141720000Y-61970000D01*
X145770000Y-60850000D02*
X145120000Y-60850000D01*
X140880000Y-59730000D02*
X145120000Y-59730000D01*
X145120000Y-61970000D01*
X140880000Y-61970000D01*
X140880000Y-59730000D01*
%TO.C,SW26*%
X100515000Y-117015000D02*
X114485000Y-117015000D01*
X100515000Y-130985000D02*
X100515000Y-117015000D01*
X114485000Y-117015000D02*
X114485000Y-130985000D01*
X114485000Y-130985000D02*
X100515000Y-130985000D01*
%TO.C,SW22*%
X81015000Y-58515000D02*
X94985000Y-58515000D01*
X81015000Y-72485000D02*
X81015000Y-58515000D01*
X94985000Y-58515000D02*
X94985000Y-72485000D01*
X94985000Y-72485000D02*
X81015000Y-72485000D01*
%TO.C,D10*%
X140230000Y-75050000D02*
X140880000Y-75050000D01*
X141480000Y-73930000D02*
X141480000Y-76170000D01*
X141600000Y-73930000D02*
X141600000Y-76170000D01*
X141720000Y-73930000D02*
X141720000Y-76170000D01*
X145770000Y-75050000D02*
X145120000Y-75050000D01*
X140880000Y-73930000D02*
X145120000Y-73930000D01*
X145120000Y-76170000D01*
X140880000Y-76170000D01*
X140880000Y-73930000D01*
%TO.C,SW19*%
X81015000Y-117015000D02*
X94985000Y-117015000D01*
X81015000Y-130985000D02*
X81015000Y-117015000D01*
X94985000Y-117015000D02*
X94985000Y-130985000D01*
X94985000Y-130985000D02*
X81015000Y-130985000D01*
%TO.C,D6*%
X140230000Y-66250000D02*
X140880000Y-66250000D01*
X141480000Y-65130000D02*
X141480000Y-67370000D01*
X141600000Y-65130000D02*
X141600000Y-67370000D01*
X141720000Y-65130000D02*
X141720000Y-67370000D01*
X145770000Y-66250000D02*
X145120000Y-66250000D01*
X140880000Y-65130000D02*
X145120000Y-65130000D01*
X145120000Y-67370000D01*
X140880000Y-67370000D01*
X140880000Y-65130000D01*
%TO.C,D9*%
X140230000Y-69000000D02*
X140880000Y-69000000D01*
X141480000Y-67880000D02*
X141480000Y-70120000D01*
X141600000Y-67880000D02*
X141600000Y-70120000D01*
X141720000Y-67880000D02*
X141720000Y-70120000D01*
X145770000Y-69000000D02*
X145120000Y-69000000D01*
X140880000Y-67880000D02*
X145120000Y-67880000D01*
X145120000Y-70120000D01*
X140880000Y-70120000D01*
X140880000Y-67880000D01*
%TO.C,D16*%
X140230000Y-96350000D02*
X140880000Y-96350000D01*
X141480000Y-95230000D02*
X141480000Y-97470000D01*
X141600000Y-95230000D02*
X141600000Y-97470000D01*
X141720000Y-95230000D02*
X141720000Y-97470000D01*
X145770000Y-96350000D02*
X145120000Y-96350000D01*
X140880000Y-95230000D02*
X145120000Y-95230000D01*
X145120000Y-97470000D01*
X140880000Y-97470000D01*
X140880000Y-95230000D01*
%TO.C,SW21*%
X81015000Y-78015000D02*
X94985000Y-78015000D01*
X81015000Y-91985000D02*
X81015000Y-78015000D01*
X94985000Y-78015000D02*
X94985000Y-91985000D01*
X94985000Y-91985000D02*
X81015000Y-91985000D01*
%TO.C,D14*%
X140230000Y-89250000D02*
X140880000Y-89250000D01*
X141480000Y-88130000D02*
X141480000Y-90370000D01*
X141600000Y-88130000D02*
X141600000Y-90370000D01*
X141720000Y-88130000D02*
X141720000Y-90370000D01*
X145770000Y-89250000D02*
X145120000Y-89250000D01*
X140880000Y-88130000D02*
X145120000Y-88130000D01*
X145120000Y-90370000D01*
X140880000Y-90370000D01*
X140880000Y-88130000D01*
%TO.C,SW23*%
X100515000Y-58515000D02*
X114485000Y-58515000D01*
X100515000Y-72485000D02*
X100515000Y-58515000D01*
X114485000Y-58515000D02*
X114485000Y-72485000D01*
X114485000Y-72485000D02*
X100515000Y-72485000D01*
%TO.C,D12*%
X140230000Y-82150000D02*
X140880000Y-82150000D01*
X141480000Y-81030000D02*
X141480000Y-83270000D01*
X141600000Y-81030000D02*
X141600000Y-83270000D01*
X141720000Y-81030000D02*
X141720000Y-83270000D01*
X145770000Y-82150000D02*
X145120000Y-82150000D01*
X140880000Y-81030000D02*
X145120000Y-81030000D01*
X145120000Y-83270000D01*
X140880000Y-83270000D01*
X140880000Y-81030000D01*
%TO.C,D13*%
X140230000Y-85700000D02*
X140880000Y-85700000D01*
X141480000Y-84580000D02*
X141480000Y-86820000D01*
X141600000Y-84580000D02*
X141600000Y-86820000D01*
X141720000Y-84580000D02*
X141720000Y-86820000D01*
X145770000Y-85700000D02*
X145120000Y-85700000D01*
X140880000Y-84580000D02*
X145120000Y-84580000D01*
X145120000Y-86820000D01*
X140880000Y-86820000D01*
X140880000Y-84580000D01*
%TO.C,SW15*%
X119935000Y-78015000D02*
X133905000Y-78015000D01*
X119935000Y-91985000D02*
X119935000Y-78015000D01*
X133905000Y-78015000D02*
X133905000Y-91985000D01*
X133905000Y-91985000D02*
X119935000Y-91985000D01*
%TO.C,SW24*%
X100515000Y-78015000D02*
X114485000Y-78015000D01*
X100515000Y-91985000D02*
X100515000Y-78015000D01*
X114485000Y-78015000D02*
X114485000Y-91985000D01*
X114485000Y-91985000D02*
X100515000Y-91985000D01*
%TO.C,D11*%
X140230000Y-78600000D02*
X140880000Y-78600000D01*
X141480000Y-77480000D02*
X141480000Y-79720000D01*
X141600000Y-77480000D02*
X141600000Y-79720000D01*
X141720000Y-77480000D02*
X141720000Y-79720000D01*
X145770000Y-78600000D02*
X145120000Y-78600000D01*
X140880000Y-77480000D02*
X145120000Y-77480000D01*
X145120000Y-79720000D01*
X140880000Y-79720000D01*
X140880000Y-77480000D01*
%TO.C,U1*%
D15*
X79975000Y-136287985D02*
X79975000Y-153287985D01*
X81975000Y-155287075D02*
X95775000Y-155287075D01*
X84375000Y-149358715D02*
X93375000Y-149358715D01*
X84375000Y-156712015D02*
X84375000Y-149358715D01*
X93375000Y-149358715D02*
X93375000Y-156712015D01*
X93375000Y-156712015D02*
X84375000Y-156712015D01*
X95775000Y-134287985D02*
X81975000Y-134287985D01*
X97775000Y-153287985D02*
X97775000Y-136287985D01*
D13*
X79975000Y-136287985D02*
G75*
G02*
X81975000Y-134287985I2000000J0D01*
G01*
X81975000Y-155287985D02*
G75*
G02*
X79975000Y-153287985I44610J2044610D01*
G01*
X95775000Y-134287985D02*
G75*
G02*
X97775000Y-136287985I-44857J-2044857D01*
G01*
X97775000Y-153287985D02*
G75*
G02*
X95775000Y-155287985I-2044612J44612D01*
G01*
D16*
X100002000Y-153587985D02*
G75*
G02*
X99748000Y-153587985I-127000J0D01*
G01*
X99748000Y-153587985D02*
G75*
G02*
X100002000Y-153587985I127000J0D01*
G01*
D17*
X97762715Y-153349690D02*
X97759667Y-153398458D01*
X97755603Y-153447479D01*
X97762715Y-153349690D01*
X79985508Y-136266411D02*
X79987287Y-136217135D01*
X79990335Y-136168367D01*
X79994399Y-136119346D01*
X79999732Y-136070578D01*
X80006336Y-136021810D01*
X80013956Y-135973295D01*
X80022847Y-135925035D01*
X80032752Y-135877030D01*
X79985508Y-136266411D01*
%TD*%
M02*
