M48
; DRILL file KiCad 10.0.5 date 2026-08-06T10:00:33
; FORMAT={-:-/ absolute / metric / decimal}
; #@! TF.CreationDate,2026-08-06T10:00:33-07:00
; #@! TF.GenerationSoftware,Kicad,Pcbnew,10.0.5
; #@! TF.FileFunction,NonPlated,1,2,NPTH
FMAT,2
METRIC
; #@! TA.AperFunction,NonPlated,NPTH,ComponentDrill
T1C1.700
; #@! TA.AperFunction,NonPlated,NPTH,ComponentDrill
T2C3.200
; #@! TA.AperFunction,NonPlated,NPTH,ComponentDrill
T3C4.000
%
G90
G05
T1
X82.92Y-65.5
X82.92Y-85.0
X82.92Y-104.5
X82.92Y-124.0
X93.08Y-65.5
X93.08Y-85.0
X93.08Y-104.5
X93.08Y-124.0
X102.42Y-65.5
X102.42Y-85.0
X102.42Y-104.5
X102.42Y-124.0
X112.58Y-65.5
X112.58Y-85.0
X112.58Y-104.5
X112.58Y-124.0
X121.84Y-85.0
X121.84Y-104.5
X121.92Y-65.5
X132.0Y-85.0
X132.0Y-104.5
X132.08Y-65.5
T2
X141.0Y-110.0
X144.0Y-143.0
T3
X88.0Y-65.5
X88.0Y-85.0
X88.0Y-104.5
X88.0Y-124.0
X107.5Y-65.5
X107.5Y-85.0
X107.5Y-104.5
X107.5Y-124.0
X126.92Y-85.0
X126.92Y-104.5
X127.0Y-65.5
M30
