M48
; DRILL file KiCad 10.0.5 date 2026-08-06T10:00:33
; FORMAT={-:-/ absolute / metric / decimal}
; #@! TF.CreationDate,2026-08-06T10:00:33-07:00
; #@! TF.GenerationSoftware,Kicad,Pcbnew,10.0.5
; #@! TF.FileFunction,Plated,1,2,PTH
FMAT,2
METRIC
; #@! TA.AperFunction,Plated,PTH,ViaDrill
T1C0.300
; #@! TA.AperFunction,Plated,PTH,ComponentDrill
T2C0.800
; #@! TA.AperFunction,Plated,PTH,ComponentDrill
T3C1.000
; #@! TA.AperFunction,Plated,PTH,ComponentDrill
T4C1.500
%
G90
G05
T1
X83.5Y-148.75
X85.5Y-136.25
X89.771Y-141.521
X91.5Y-135.75
X93.25Y-136.0
X93.5Y-138.5
X93.816Y-136.566
X95.5Y-135.0
X116.0Y-80.0
X117.75Y-84.5
X118.25Y-98.25
X119.0Y-82.0
X119.75Y-85.25
X122.0Y-118.25
X123.0Y-98.25
X125.75Y-101.5
X128.0Y-109.75
X128.5Y-77.75
X128.75Y-71.5
X128.75Y-76.5
X128.75Y-102.5
X131.0Y-70.25
X132.25Y-79.0
X132.5Y-81.75
X133.75Y-75.25
X134.0Y-109.5
X134.49Y-78.5
X135.09Y-73.5
X135.09Y-75.0
X135.25Y-87.5
X135.69Y-71.5
X136.29Y-67.75
X136.89Y-64.25
X137.25Y-87.25
X137.49Y-60.75
X146.21Y-101.5
X147.25Y-112.25
T2
X139.19Y-58.25
X139.19Y-60.85
X139.19Y-63.5
X139.19Y-66.25
X139.19Y-69.0
X139.19Y-75.05
X139.19Y-78.6
X139.19Y-82.15
X139.19Y-85.7
X139.19Y-89.25
X139.19Y-92.8
X139.19Y-96.35
X146.81Y-58.25
X146.81Y-60.85
X146.81Y-63.5
X146.81Y-66.25
X146.81Y-69.0
X146.81Y-75.05
X146.81Y-78.6
X146.81Y-82.15
X146.81Y-85.7
X146.81Y-89.25
X146.81Y-92.8
X146.81Y-96.35
T3
X81.25Y-137.168
X81.25Y-139.708
X81.25Y-142.248
X81.25Y-144.788
X81.25Y-147.328
X81.25Y-149.868
X81.25Y-152.408
X96.5Y-137.168
X96.5Y-139.708
X96.5Y-142.248
X96.5Y-144.788
X96.5Y-147.328
X96.5Y-149.868
X96.5Y-152.408
X101.75Y-137.69
X101.75Y-140.23
X101.75Y-142.77
X101.75Y-145.31
X119.67Y-121.5
X119.67Y-124.0
X119.67Y-126.5
X134.17Y-121.5
X134.17Y-126.5
T4
X84.19Y-62.96
X84.19Y-82.46
X84.19Y-101.96
X84.19Y-121.46
X90.54Y-60.42
X90.54Y-79.92
X90.54Y-99.42
X90.54Y-118.92
X103.69Y-62.96
X103.69Y-82.46
X103.69Y-101.96
X103.69Y-121.46
X110.04Y-60.42
X110.04Y-79.92
X110.04Y-99.42
X110.04Y-118.92
X123.11Y-82.46
X123.11Y-101.96
X123.19Y-62.96
X129.46Y-79.92
X129.46Y-99.42
X129.54Y-60.42
T4
G00X126.52Y-118.4
M15
G01X127.82Y-118.4
M16
G05
G00X126.52Y-129.6
M15
G01X127.82Y-129.6
M16
G05
M30
